M48
INCH,TZ
T1C0.0295
T2C0.0354
T3C0.0400
T4C0.0591
%
G90
G05
T1
X69000Y-15000
X69500Y-15000
X70000Y-15000
T2
X58500Y-39000
X59500Y-39000
X58500Y-31000
X59500Y-31000
X58500Y-23000
X59500Y-23000
X58500Y-15000
X59500Y-15000
T3
X65000Y-22500
X65000Y-23500
X65000Y-24500
X65000Y-25500
X65000Y-26500
X65000Y-27500
X65000Y-28500
X65000Y-29500
X74000Y-22500
X74000Y-23500
X74000Y-24500
X74000Y-25500
X74000Y-26500
X74000Y-27500
X74000Y-28500
X74000Y-29500
T4
X57500Y-12000
X60000Y-11000
X57500Y-28000
X60000Y-27000
X57500Y-20000
X60000Y-19000
X57500Y-36000
X60000Y-35000
T0
M30
