G04 #@! TF.GenerationSoftware,KiCad,Pcbnew,5.0.0-fee4fd1~66~ubuntu16.04.1*
G04 #@! TF.CreationDate,2018-08-10T21:55:03+02:00*
G04 #@! TF.ProjectId,ESP-Cerry,4553502D43657272792E6B696361645F,rev?*
G04 #@! TF.SameCoordinates,Original*
G04 #@! TF.FileFunction,Legend,Top*
G04 #@! TF.FilePolarity,Positive*
%FSLAX46Y46*%
G04 Gerber Fmt 4.6, Leading zero omitted, Abs format (unit mm)*
G04 Created by KiCad (PCBNEW 5.0.0-fee4fd1~66~ubuntu16.04.1) date Fri Aug 10 21:55:03 2018*
%MOMM*%
%LPD*%
G01*
G04 APERTURE LIST*
%ADD10C,0.300000*%
%ADD11C,0.150000*%
%ADD12C,0.120000*%
G04 APERTURE END LIST*
D10*
X180257142Y-87594285D02*
X180185714Y-87522857D01*
X180042857Y-87451428D01*
X179900000Y-87451428D01*
X179757142Y-87522857D01*
X179685714Y-87594285D01*
X179614285Y-87737142D01*
X179614285Y-87880000D01*
X179685714Y-88022857D01*
X179757142Y-88094285D01*
X179900000Y-88165714D01*
X180042857Y-88165714D01*
X180185714Y-88094285D01*
X180257142Y-88022857D01*
X180257142Y-87451428D02*
X180257142Y-88022857D01*
X180328571Y-88094285D01*
X180400000Y-88094285D01*
X180542857Y-88022857D01*
X180614285Y-87880000D01*
X180614285Y-87522857D01*
X180471428Y-87308571D01*
X180257142Y-87165714D01*
X179971428Y-87094285D01*
X179685714Y-87165714D01*
X179471428Y-87308571D01*
X179328571Y-87522857D01*
X179257142Y-87808571D01*
X179328571Y-88094285D01*
X179471428Y-88308571D01*
X179685714Y-88451428D01*
X179971428Y-88522857D01*
X180257142Y-88451428D01*
X180471428Y-88308571D01*
X182114285Y-88308571D02*
X181614285Y-87594285D01*
X181257142Y-88308571D02*
X181257142Y-86808571D01*
X181828571Y-86808571D01*
X181971428Y-86880000D01*
X182042857Y-86951428D01*
X182114285Y-87094285D01*
X182114285Y-87308571D01*
X182042857Y-87451428D01*
X181971428Y-87522857D01*
X181828571Y-87594285D01*
X181257142Y-87594285D01*
X183400000Y-88308571D02*
X183400000Y-87522857D01*
X183328571Y-87380000D01*
X183185714Y-87308571D01*
X182900000Y-87308571D01*
X182757142Y-87380000D01*
X183400000Y-88237142D02*
X183257142Y-88308571D01*
X182900000Y-88308571D01*
X182757142Y-88237142D01*
X182685714Y-88094285D01*
X182685714Y-87951428D01*
X182757142Y-87808571D01*
X182900000Y-87737142D01*
X183257142Y-87737142D01*
X183400000Y-87665714D01*
X184114285Y-87308571D02*
X184114285Y-88308571D01*
X184114285Y-87451428D02*
X184185714Y-87380000D01*
X184328571Y-87308571D01*
X184542857Y-87308571D01*
X184685714Y-87380000D01*
X184757142Y-87522857D01*
X184757142Y-88308571D01*
X185685714Y-88308571D02*
X185542857Y-88237142D01*
X185471428Y-88094285D01*
X185471428Y-86808571D01*
X186114285Y-87308571D02*
X186471428Y-88308571D01*
X186828571Y-87308571D01*
X187614285Y-88308571D02*
X187471428Y-88237142D01*
X187400000Y-88165714D01*
X187328571Y-88022857D01*
X187328571Y-87594285D01*
X187400000Y-87451428D01*
X187471428Y-87380000D01*
X187614285Y-87308571D01*
X187828571Y-87308571D01*
X187971428Y-87380000D01*
X188042857Y-87451428D01*
X188114285Y-87594285D01*
X188114285Y-88022857D01*
X188042857Y-88165714D01*
X187971428Y-88237142D01*
X187828571Y-88308571D01*
X187614285Y-88308571D01*
X188757142Y-88308571D02*
X188757142Y-87308571D01*
X188757142Y-87594285D02*
X188828571Y-87451428D01*
X188900000Y-87380000D01*
X189042857Y-87308571D01*
X189185714Y-87308571D01*
D11*
G04 #@! TO.C,U1*
X170180000Y-60960000D02*
X170180000Y-74930000D01*
X170180000Y-74930000D02*
X182880000Y-74930000D01*
X182880000Y-74930000D02*
X182880000Y-60960000D01*
X182880000Y-60960000D02*
X170180000Y-60960000D01*
X167640000Y-59690000D02*
X185420000Y-59690000D01*
X185420000Y-59690000D02*
X185420000Y-82550000D01*
X185420000Y-82550000D02*
X167640000Y-82550000D01*
X167640000Y-82550000D02*
X167640000Y-59690000D01*
D12*
G04 #@! TO.C,D1*
X148300000Y-39180000D02*
X148300000Y-39336000D01*
X148300000Y-36864000D02*
X148300000Y-37020000D01*
X150901130Y-39179837D02*
G75*
G02X148819039Y-39180000I-1041130J1079837D01*
G01*
X150901130Y-37020163D02*
G75*
G03X148819039Y-37020000I-1041130J-1079837D01*
G01*
X151532335Y-39178608D02*
G75*
G02X148300000Y-39335516I-1672335J1078608D01*
G01*
X151532335Y-37021392D02*
G75*
G03X148300000Y-36864484I-1672335J-1078608D01*
G01*
G04 #@! TO.C,D2*
X151532335Y-57341392D02*
G75*
G03X148300000Y-57184484I-1672335J-1078608D01*
G01*
X151532335Y-59498608D02*
G75*
G02X148300000Y-59655516I-1672335J1078608D01*
G01*
X150901130Y-57340163D02*
G75*
G03X148819039Y-57340000I-1041130J-1079837D01*
G01*
X150901130Y-59499837D02*
G75*
G02X148819039Y-59500000I-1041130J1079837D01*
G01*
X148300000Y-57184000D02*
X148300000Y-57340000D01*
X148300000Y-59500000D02*
X148300000Y-59656000D01*
G04 #@! TO.C,D3*
X148300000Y-79820000D02*
X148300000Y-79976000D01*
X148300000Y-77504000D02*
X148300000Y-77660000D01*
X150901130Y-79819837D02*
G75*
G02X148819039Y-79820000I-1041130J1079837D01*
G01*
X150901130Y-77660163D02*
G75*
G03X148819039Y-77660000I-1041130J-1079837D01*
G01*
X151532335Y-79818608D02*
G75*
G02X148300000Y-79975516I-1672335J1078608D01*
G01*
X151532335Y-77661392D02*
G75*
G03X148300000Y-77504484I-1672335J-1078608D01*
G01*
G04 #@! TO.C,D4*
X151532335Y-97981392D02*
G75*
G03X148300000Y-97824484I-1672335J-1078608D01*
G01*
X151532335Y-100138608D02*
G75*
G02X148300000Y-100295516I-1672335J1078608D01*
G01*
X150901130Y-97980163D02*
G75*
G03X148819039Y-97980000I-1041130J-1079837D01*
G01*
X150901130Y-100139837D02*
G75*
G02X148819039Y-100140000I-1041130J1079837D01*
G01*
X148300000Y-97824000D02*
X148300000Y-97980000D01*
X148300000Y-100140000D02*
X148300000Y-100296000D01*
G04 #@! TO.C,R1*
X137720000Y-71626252D02*
X137720000Y-71103748D01*
X139140000Y-71626252D02*
X139140000Y-71103748D01*
G04 #@! TO.C,R2*
X139140000Y-92971252D02*
X139140000Y-92448748D01*
X137720000Y-92971252D02*
X137720000Y-92448748D01*
G04 #@! TO.C,R3*
X137720000Y-39631252D02*
X137720000Y-39108748D01*
X139140000Y-39631252D02*
X139140000Y-39108748D01*
G04 #@! TO.C,R4*
X139140000Y-59951252D02*
X139140000Y-59428748D01*
X137720000Y-59951252D02*
X137720000Y-59428748D01*
G04 #@! TO.C,R5*
X137720000Y-80026252D02*
X137720000Y-79503748D01*
X139140000Y-80026252D02*
X139140000Y-79503748D01*
G04 #@! TO.C,R6*
X137720000Y-97528748D02*
X137720000Y-98051252D01*
X139140000Y-97528748D02*
X139140000Y-98051252D01*
G04 #@! TO.C,SW1*
X142875000Y-26035000D02*
X156845000Y-26035000D01*
X156845000Y-26035000D02*
X156845000Y-40005000D01*
X156845000Y-40005000D02*
X142875000Y-40005000D01*
X142875000Y-40005000D02*
X142875000Y-26035000D01*
G04 #@! TO.C,SW2*
X142875000Y-60325000D02*
X142875000Y-46355000D01*
X156845000Y-60325000D02*
X142875000Y-60325000D01*
X156845000Y-46355000D02*
X156845000Y-60325000D01*
X142875000Y-46355000D02*
X156845000Y-46355000D01*
G04 #@! TO.C,SW3*
X142875000Y-66675000D02*
X156845000Y-66675000D01*
X156845000Y-66675000D02*
X156845000Y-80645000D01*
X156845000Y-80645000D02*
X142875000Y-80645000D01*
X142875000Y-80645000D02*
X142875000Y-66675000D01*
G04 #@! TO.C,SW4*
X142875000Y-100965000D02*
X142875000Y-86995000D01*
X156845000Y-100965000D02*
X142875000Y-100965000D01*
X156845000Y-86995000D02*
X156845000Y-100965000D01*
X142875000Y-86995000D02*
X156845000Y-86995000D01*
G04 #@! TO.C,R7*
X177538748Y-42470000D02*
X178061252Y-42470000D01*
X177538748Y-43890000D02*
X178061252Y-43890000D01*
G04 #@! TO.C,U2*
X174730000Y-39950000D02*
X178330000Y-39950000D01*
X174691522Y-39938478D02*
G75*
G02X176530000Y-35500000I1838478J1838478D01*
G01*
X178368478Y-39938478D02*
G75*
G03X176530000Y-35500000I-1838478J1838478D01*
G01*
G04 #@! TO.C,D1*
D11*
X149121904Y-35592380D02*
X149121904Y-34592380D01*
X149360000Y-34592380D01*
X149502857Y-34640000D01*
X149598095Y-34735238D01*
X149645714Y-34830476D01*
X149693333Y-35020952D01*
X149693333Y-35163809D01*
X149645714Y-35354285D01*
X149598095Y-35449523D01*
X149502857Y-35544761D01*
X149360000Y-35592380D01*
X149121904Y-35592380D01*
X150645714Y-35592380D02*
X150074285Y-35592380D01*
X150360000Y-35592380D02*
X150360000Y-34592380D01*
X150264761Y-34735238D01*
X150169523Y-34830476D01*
X150074285Y-34878095D01*
G04 #@! TO.C,D2*
X149121904Y-55912380D02*
X149121904Y-54912380D01*
X149360000Y-54912380D01*
X149502857Y-54960000D01*
X149598095Y-55055238D01*
X149645714Y-55150476D01*
X149693333Y-55340952D01*
X149693333Y-55483809D01*
X149645714Y-55674285D01*
X149598095Y-55769523D01*
X149502857Y-55864761D01*
X149360000Y-55912380D01*
X149121904Y-55912380D01*
X150074285Y-55007619D02*
X150121904Y-54960000D01*
X150217142Y-54912380D01*
X150455238Y-54912380D01*
X150550476Y-54960000D01*
X150598095Y-55007619D01*
X150645714Y-55102857D01*
X150645714Y-55198095D01*
X150598095Y-55340952D01*
X150026666Y-55912380D01*
X150645714Y-55912380D01*
G04 #@! TO.C,D3*
X149121904Y-76232380D02*
X149121904Y-75232380D01*
X149360000Y-75232380D01*
X149502857Y-75280000D01*
X149598095Y-75375238D01*
X149645714Y-75470476D01*
X149693333Y-75660952D01*
X149693333Y-75803809D01*
X149645714Y-75994285D01*
X149598095Y-76089523D01*
X149502857Y-76184761D01*
X149360000Y-76232380D01*
X149121904Y-76232380D01*
X150026666Y-75232380D02*
X150645714Y-75232380D01*
X150312380Y-75613333D01*
X150455238Y-75613333D01*
X150550476Y-75660952D01*
X150598095Y-75708571D01*
X150645714Y-75803809D01*
X150645714Y-76041904D01*
X150598095Y-76137142D01*
X150550476Y-76184761D01*
X150455238Y-76232380D01*
X150169523Y-76232380D01*
X150074285Y-76184761D01*
X150026666Y-76137142D01*
G04 #@! TO.C,D4*
X149121904Y-96552380D02*
X149121904Y-95552380D01*
X149360000Y-95552380D01*
X149502857Y-95600000D01*
X149598095Y-95695238D01*
X149645714Y-95790476D01*
X149693333Y-95980952D01*
X149693333Y-96123809D01*
X149645714Y-96314285D01*
X149598095Y-96409523D01*
X149502857Y-96504761D01*
X149360000Y-96552380D01*
X149121904Y-96552380D01*
X150550476Y-95885714D02*
X150550476Y-96552380D01*
X150312380Y-95504761D02*
X150074285Y-96219047D01*
X150693333Y-96219047D01*
G04 #@! TO.C,R1*
X137232380Y-71531666D02*
X136756190Y-71865000D01*
X137232380Y-72103095D02*
X136232380Y-72103095D01*
X136232380Y-71722142D01*
X136280000Y-71626904D01*
X136327619Y-71579285D01*
X136422857Y-71531666D01*
X136565714Y-71531666D01*
X136660952Y-71579285D01*
X136708571Y-71626904D01*
X136756190Y-71722142D01*
X136756190Y-72103095D01*
X137232380Y-70579285D02*
X137232380Y-71150714D01*
X137232380Y-70865000D02*
X136232380Y-70865000D01*
X136375238Y-70960238D01*
X136470476Y-71055476D01*
X136518095Y-71150714D01*
G04 #@! TO.C,R2*
X137232380Y-92876666D02*
X136756190Y-93210000D01*
X137232380Y-93448095D02*
X136232380Y-93448095D01*
X136232380Y-93067142D01*
X136280000Y-92971904D01*
X136327619Y-92924285D01*
X136422857Y-92876666D01*
X136565714Y-92876666D01*
X136660952Y-92924285D01*
X136708571Y-92971904D01*
X136756190Y-93067142D01*
X136756190Y-93448095D01*
X136327619Y-92495714D02*
X136280000Y-92448095D01*
X136232380Y-92352857D01*
X136232380Y-92114761D01*
X136280000Y-92019523D01*
X136327619Y-91971904D01*
X136422857Y-91924285D01*
X136518095Y-91924285D01*
X136660952Y-91971904D01*
X137232380Y-92543333D01*
X137232380Y-91924285D01*
G04 #@! TO.C,R3*
X137232380Y-39536666D02*
X136756190Y-39870000D01*
X137232380Y-40108095D02*
X136232380Y-40108095D01*
X136232380Y-39727142D01*
X136280000Y-39631904D01*
X136327619Y-39584285D01*
X136422857Y-39536666D01*
X136565714Y-39536666D01*
X136660952Y-39584285D01*
X136708571Y-39631904D01*
X136756190Y-39727142D01*
X136756190Y-40108095D01*
X136232380Y-39203333D02*
X136232380Y-38584285D01*
X136613333Y-38917619D01*
X136613333Y-38774761D01*
X136660952Y-38679523D01*
X136708571Y-38631904D01*
X136803809Y-38584285D01*
X137041904Y-38584285D01*
X137137142Y-38631904D01*
X137184761Y-38679523D01*
X137232380Y-38774761D01*
X137232380Y-39060476D01*
X137184761Y-39155714D01*
X137137142Y-39203333D01*
G04 #@! TO.C,R4*
X137232380Y-59856666D02*
X136756190Y-60190000D01*
X137232380Y-60428095D02*
X136232380Y-60428095D01*
X136232380Y-60047142D01*
X136280000Y-59951904D01*
X136327619Y-59904285D01*
X136422857Y-59856666D01*
X136565714Y-59856666D01*
X136660952Y-59904285D01*
X136708571Y-59951904D01*
X136756190Y-60047142D01*
X136756190Y-60428095D01*
X136565714Y-58999523D02*
X137232380Y-58999523D01*
X136184761Y-59237619D02*
X136899047Y-59475714D01*
X136899047Y-58856666D01*
G04 #@! TO.C,R5*
X137232380Y-79931666D02*
X136756190Y-80265000D01*
X137232380Y-80503095D02*
X136232380Y-80503095D01*
X136232380Y-80122142D01*
X136280000Y-80026904D01*
X136327619Y-79979285D01*
X136422857Y-79931666D01*
X136565714Y-79931666D01*
X136660952Y-79979285D01*
X136708571Y-80026904D01*
X136756190Y-80122142D01*
X136756190Y-80503095D01*
X136232380Y-79026904D02*
X136232380Y-79503095D01*
X136708571Y-79550714D01*
X136660952Y-79503095D01*
X136613333Y-79407857D01*
X136613333Y-79169761D01*
X136660952Y-79074523D01*
X136708571Y-79026904D01*
X136803809Y-78979285D01*
X137041904Y-78979285D01*
X137137142Y-79026904D01*
X137184761Y-79074523D01*
X137232380Y-79169761D01*
X137232380Y-79407857D01*
X137184761Y-79503095D01*
X137137142Y-79550714D01*
G04 #@! TO.C,R6*
X140532380Y-97956666D02*
X140056190Y-98290000D01*
X140532380Y-98528095D02*
X139532380Y-98528095D01*
X139532380Y-98147142D01*
X139580000Y-98051904D01*
X139627619Y-98004285D01*
X139722857Y-97956666D01*
X139865714Y-97956666D01*
X139960952Y-98004285D01*
X140008571Y-98051904D01*
X140056190Y-98147142D01*
X140056190Y-98528095D01*
X139532380Y-97099523D02*
X139532380Y-97290000D01*
X139580000Y-97385238D01*
X139627619Y-97432857D01*
X139770476Y-97528095D01*
X139960952Y-97575714D01*
X140341904Y-97575714D01*
X140437142Y-97528095D01*
X140484761Y-97480476D01*
X140532380Y-97385238D01*
X140532380Y-97194761D01*
X140484761Y-97099523D01*
X140437142Y-97051904D01*
X140341904Y-97004285D01*
X140103809Y-97004285D01*
X140008571Y-97051904D01*
X139960952Y-97099523D01*
X139913333Y-97194761D01*
X139913333Y-97385238D01*
X139960952Y-97480476D01*
X140008571Y-97528095D01*
X140103809Y-97575714D01*
G04 #@! TO.C,SW1*
X148526666Y-25550761D02*
X148669523Y-25598380D01*
X148907619Y-25598380D01*
X149002857Y-25550761D01*
X149050476Y-25503142D01*
X149098095Y-25407904D01*
X149098095Y-25312666D01*
X149050476Y-25217428D01*
X149002857Y-25169809D01*
X148907619Y-25122190D01*
X148717142Y-25074571D01*
X148621904Y-25026952D01*
X148574285Y-24979333D01*
X148526666Y-24884095D01*
X148526666Y-24788857D01*
X148574285Y-24693619D01*
X148621904Y-24646000D01*
X148717142Y-24598380D01*
X148955238Y-24598380D01*
X149098095Y-24646000D01*
X149431428Y-24598380D02*
X149669523Y-25598380D01*
X149860000Y-24884095D01*
X150050476Y-25598380D01*
X150288571Y-24598380D01*
X151193333Y-25598380D02*
X150621904Y-25598380D01*
X150907619Y-25598380D02*
X150907619Y-24598380D01*
X150812380Y-24741238D01*
X150717142Y-24836476D01*
X150621904Y-24884095D01*
G04 #@! TO.C,SW2*
X148526666Y-45870761D02*
X148669523Y-45918380D01*
X148907619Y-45918380D01*
X149002857Y-45870761D01*
X149050476Y-45823142D01*
X149098095Y-45727904D01*
X149098095Y-45632666D01*
X149050476Y-45537428D01*
X149002857Y-45489809D01*
X148907619Y-45442190D01*
X148717142Y-45394571D01*
X148621904Y-45346952D01*
X148574285Y-45299333D01*
X148526666Y-45204095D01*
X148526666Y-45108857D01*
X148574285Y-45013619D01*
X148621904Y-44966000D01*
X148717142Y-44918380D01*
X148955238Y-44918380D01*
X149098095Y-44966000D01*
X149431428Y-44918380D02*
X149669523Y-45918380D01*
X149860000Y-45204095D01*
X150050476Y-45918380D01*
X150288571Y-44918380D01*
X150621904Y-45013619D02*
X150669523Y-44966000D01*
X150764761Y-44918380D01*
X151002857Y-44918380D01*
X151098095Y-44966000D01*
X151145714Y-45013619D01*
X151193333Y-45108857D01*
X151193333Y-45204095D01*
X151145714Y-45346952D01*
X150574285Y-45918380D01*
X151193333Y-45918380D01*
G04 #@! TO.C,SW3*
X148526666Y-66190761D02*
X148669523Y-66238380D01*
X148907619Y-66238380D01*
X149002857Y-66190761D01*
X149050476Y-66143142D01*
X149098095Y-66047904D01*
X149098095Y-65952666D01*
X149050476Y-65857428D01*
X149002857Y-65809809D01*
X148907619Y-65762190D01*
X148717142Y-65714571D01*
X148621904Y-65666952D01*
X148574285Y-65619333D01*
X148526666Y-65524095D01*
X148526666Y-65428857D01*
X148574285Y-65333619D01*
X148621904Y-65286000D01*
X148717142Y-65238380D01*
X148955238Y-65238380D01*
X149098095Y-65286000D01*
X149431428Y-65238380D02*
X149669523Y-66238380D01*
X149860000Y-65524095D01*
X150050476Y-66238380D01*
X150288571Y-65238380D01*
X150574285Y-65238380D02*
X151193333Y-65238380D01*
X150860000Y-65619333D01*
X151002857Y-65619333D01*
X151098095Y-65666952D01*
X151145714Y-65714571D01*
X151193333Y-65809809D01*
X151193333Y-66047904D01*
X151145714Y-66143142D01*
X151098095Y-66190761D01*
X151002857Y-66238380D01*
X150717142Y-66238380D01*
X150621904Y-66190761D01*
X150574285Y-66143142D01*
G04 #@! TO.C,SW4*
X148526666Y-86510761D02*
X148669523Y-86558380D01*
X148907619Y-86558380D01*
X149002857Y-86510761D01*
X149050476Y-86463142D01*
X149098095Y-86367904D01*
X149098095Y-86272666D01*
X149050476Y-86177428D01*
X149002857Y-86129809D01*
X148907619Y-86082190D01*
X148717142Y-86034571D01*
X148621904Y-85986952D01*
X148574285Y-85939333D01*
X148526666Y-85844095D01*
X148526666Y-85748857D01*
X148574285Y-85653619D01*
X148621904Y-85606000D01*
X148717142Y-85558380D01*
X148955238Y-85558380D01*
X149098095Y-85606000D01*
X149431428Y-85558380D02*
X149669523Y-86558380D01*
X149860000Y-85844095D01*
X150050476Y-86558380D01*
X150288571Y-85558380D01*
X151098095Y-85891714D02*
X151098095Y-86558380D01*
X150860000Y-85510761D02*
X150621904Y-86225047D01*
X151240952Y-86225047D01*
G04 #@! TO.C,MH1*
X182816666Y-24192380D02*
X182816666Y-23192380D01*
X183150000Y-23906666D01*
X183483333Y-23192380D01*
X183483333Y-24192380D01*
X183959523Y-24192380D02*
X183959523Y-23192380D01*
X183959523Y-23668571D02*
X184530952Y-23668571D01*
X184530952Y-24192380D02*
X184530952Y-23192380D01*
X185530952Y-24192380D02*
X184959523Y-24192380D01*
X185245238Y-24192380D02*
X185245238Y-23192380D01*
X185150000Y-23335238D01*
X185054761Y-23430476D01*
X184959523Y-23478095D01*
G04 #@! TO.C,MH2*
X182816666Y-95312380D02*
X182816666Y-94312380D01*
X183150000Y-95026666D01*
X183483333Y-94312380D01*
X183483333Y-95312380D01*
X183959523Y-95312380D02*
X183959523Y-94312380D01*
X183959523Y-94788571D02*
X184530952Y-94788571D01*
X184530952Y-95312380D02*
X184530952Y-94312380D01*
X184959523Y-94407619D02*
X185007142Y-94360000D01*
X185102380Y-94312380D01*
X185340476Y-94312380D01*
X185435714Y-94360000D01*
X185483333Y-94407619D01*
X185530952Y-94502857D01*
X185530952Y-94598095D01*
X185483333Y-94740952D01*
X184911904Y-95312380D01*
X185530952Y-95312380D01*
G04 #@! TO.C,MH3*
X135826666Y-24192380D02*
X135826666Y-23192380D01*
X136160000Y-23906666D01*
X136493333Y-23192380D01*
X136493333Y-24192380D01*
X136969523Y-24192380D02*
X136969523Y-23192380D01*
X136969523Y-23668571D02*
X137540952Y-23668571D01*
X137540952Y-24192380D02*
X137540952Y-23192380D01*
X137921904Y-23192380D02*
X138540952Y-23192380D01*
X138207619Y-23573333D01*
X138350476Y-23573333D01*
X138445714Y-23620952D01*
X138493333Y-23668571D01*
X138540952Y-23763809D01*
X138540952Y-24001904D01*
X138493333Y-24097142D01*
X138445714Y-24144761D01*
X138350476Y-24192380D01*
X138064761Y-24192380D01*
X137969523Y-24144761D01*
X137921904Y-24097142D01*
G04 #@! TO.C,MH4*
X135826666Y-82612380D02*
X135826666Y-81612380D01*
X136160000Y-82326666D01*
X136493333Y-81612380D01*
X136493333Y-82612380D01*
X136969523Y-82612380D02*
X136969523Y-81612380D01*
X136969523Y-82088571D02*
X137540952Y-82088571D01*
X137540952Y-82612380D02*
X137540952Y-81612380D01*
X138445714Y-81945714D02*
X138445714Y-82612380D01*
X138207619Y-81564761D02*
X137969523Y-82279047D01*
X138588571Y-82279047D01*
G04 #@! TO.C,MH5*
X135826666Y-44512380D02*
X135826666Y-43512380D01*
X136160000Y-44226666D01*
X136493333Y-43512380D01*
X136493333Y-44512380D01*
X136969523Y-44512380D02*
X136969523Y-43512380D01*
X136969523Y-43988571D02*
X137540952Y-43988571D01*
X137540952Y-44512380D02*
X137540952Y-43512380D01*
X138493333Y-43512380D02*
X138017142Y-43512380D01*
X137969523Y-43988571D01*
X138017142Y-43940952D01*
X138112380Y-43893333D01*
X138350476Y-43893333D01*
X138445714Y-43940952D01*
X138493333Y-43988571D01*
X138540952Y-44083809D01*
X138540952Y-44321904D01*
X138493333Y-44417142D01*
X138445714Y-44464761D01*
X138350476Y-44512380D01*
X138112380Y-44512380D01*
X138017142Y-44464761D01*
X137969523Y-44417142D01*
G04 #@! TO.C,MH6*
X135826666Y-62292380D02*
X135826666Y-61292380D01*
X136160000Y-62006666D01*
X136493333Y-61292380D01*
X136493333Y-62292380D01*
X136969523Y-62292380D02*
X136969523Y-61292380D01*
X136969523Y-61768571D02*
X137540952Y-61768571D01*
X137540952Y-62292380D02*
X137540952Y-61292380D01*
X138445714Y-61292380D02*
X138255238Y-61292380D01*
X138160000Y-61340000D01*
X138112380Y-61387619D01*
X138017142Y-61530476D01*
X137969523Y-61720952D01*
X137969523Y-62101904D01*
X138017142Y-62197142D01*
X138064761Y-62244761D01*
X138160000Y-62292380D01*
X138350476Y-62292380D01*
X138445714Y-62244761D01*
X138493333Y-62197142D01*
X138540952Y-62101904D01*
X138540952Y-61863809D01*
X138493333Y-61768571D01*
X138445714Y-61720952D01*
X138350476Y-61673333D01*
X138160000Y-61673333D01*
X138064761Y-61720952D01*
X138017142Y-61768571D01*
X137969523Y-61863809D01*
G04 #@! TO.C,*
G04 #@! TO.C,R7*
X177633333Y-41982380D02*
X177300000Y-41506190D01*
X177061904Y-41982380D02*
X177061904Y-40982380D01*
X177442857Y-40982380D01*
X177538095Y-41030000D01*
X177585714Y-41077619D01*
X177633333Y-41172857D01*
X177633333Y-41315714D01*
X177585714Y-41410952D01*
X177538095Y-41458571D01*
X177442857Y-41506190D01*
X177061904Y-41506190D01*
X177966666Y-40982380D02*
X178633333Y-40982380D01*
X178204761Y-41982380D01*
G04 #@! TO.C,U2*
X175768095Y-33992380D02*
X175768095Y-34801904D01*
X175815714Y-34897142D01*
X175863333Y-34944761D01*
X175958571Y-34992380D01*
X176149047Y-34992380D01*
X176244285Y-34944761D01*
X176291904Y-34897142D01*
X176339523Y-34801904D01*
X176339523Y-33992380D01*
X176768095Y-34087619D02*
X176815714Y-34040000D01*
X176910952Y-33992380D01*
X177149047Y-33992380D01*
X177244285Y-34040000D01*
X177291904Y-34087619D01*
X177339523Y-34182857D01*
X177339523Y-34278095D01*
X177291904Y-34420952D01*
X176720476Y-34992380D01*
X177339523Y-34992380D01*
G04 #@! TD*
M02*
