G04 #@! TF.GenerationSoftware,KiCad,Pcbnew,5.0.0-fee4fd1~66~ubuntu16.04.1*
G04 #@! TF.CreationDate,2018-08-10T21:55:03+02:00*
G04 #@! TF.ProjectId,ESP-Cerry,4553502D43657272792E6B696361645F,rev?*
G04 #@! TF.SameCoordinates,Original*
G04 #@! TF.FileFunction,Copper,L2,Bot,Signal*
G04 #@! TF.FilePolarity,Positive*
%FSLAX46Y46*%
G04 Gerber Fmt 4.6, Leading zero omitted, Abs format (unit mm)*
G04 Created by KiCad (PCBNEW 5.0.0-fee4fd1~66~ubuntu16.04.1) date Fri Aug 10 21:55:03 2018*
%MOMM*%
%LPD*%
G01*
G04 APERTURE LIST*
G04 #@! TA.AperFunction,ComponentPad*
%ADD10C,1.800000*%
G04 #@! TD*
G04 #@! TA.AperFunction,ComponentPad*
%ADD11R,1.800000X1.800000*%
G04 #@! TD*
G04 #@! TA.AperFunction,ComponentPad*
%ADD12C,2.200000*%
G04 #@! TD*
G04 #@! TA.AperFunction,ComponentPad*
%ADD13O,1.050000X1.500000*%
G04 #@! TD*
G04 #@! TA.AperFunction,ComponentPad*
%ADD14R,1.050000X1.500000*%
G04 #@! TD*
G04 #@! TA.AperFunction,Conductor*
%ADD15C,0.500000*%
G04 #@! TD*
G04 #@! TA.AperFunction,Conductor*
%ADD16C,0.254000*%
G04 #@! TD*
G04 APERTURE END LIST*
D10*
G04 #@! TO.P,U1,8*
G04 #@! TO.N,Net-(R7-Pad1)*
X165100000Y-74930000D03*
G04 #@! TO.P,U1,7*
G04 #@! TO.N,N/C*
X165100000Y-72390000D03*
G04 #@! TO.P,U1,6*
G04 #@! TO.N,Net-(R2-Pad2)*
X165100000Y-69850000D03*
G04 #@! TO.P,U1,5*
G04 #@! TO.N,Net-(R1-Pad2)*
X165100000Y-67310000D03*
G04 #@! TO.P,U1,4*
G04 #@! TO.N,Net-(SW2-Pad2)*
X165100000Y-64770000D03*
G04 #@! TO.P,U1,3*
G04 #@! TO.N,Net-(SW1-Pad2)*
X165100000Y-62230000D03*
G04 #@! TO.P,U1,2*
G04 #@! TO.N,GND*
X165100000Y-59690000D03*
G04 #@! TO.P,U1,1*
G04 #@! TO.N,N/C*
X165100000Y-57150000D03*
G04 #@! TO.P,U1,16*
G04 #@! TO.N,+3V3*
X187960000Y-57150000D03*
G04 #@! TO.P,U1,15*
G04 #@! TO.N,N/C*
X187960000Y-59690000D03*
G04 #@! TO.P,U1,14*
G04 #@! TO.N,Net-(D1-Pad2)*
X187960000Y-62230000D03*
G04 #@! TO.P,U1,13*
G04 #@! TO.N,Net-(D2-Pad2)*
X187960000Y-64770000D03*
G04 #@! TO.P,U1,12*
G04 #@! TO.N,Net-(D3-Pad2)*
X187960000Y-67310000D03*
G04 #@! TO.P,U1,11*
G04 #@! TO.N,Net-(D4-Pad2)*
X187960000Y-69850000D03*
G04 #@! TO.P,U1,10*
G04 #@! TO.N,N/C*
X187960000Y-72390000D03*
G04 #@! TO.P,U1,9*
X187960000Y-74930000D03*
G04 #@! TD*
G04 #@! TO.P,D1,2*
G04 #@! TO.N,Net-(D1-Pad2)*
X151130000Y-38100000D03*
D11*
G04 #@! TO.P,D1,1*
G04 #@! TO.N,Net-(D1-Pad1)*
X148590000Y-38100000D03*
G04 #@! TD*
G04 #@! TO.P,D2,1*
G04 #@! TO.N,Net-(D2-Pad1)*
X148590000Y-58420000D03*
D10*
G04 #@! TO.P,D2,2*
G04 #@! TO.N,Net-(D2-Pad2)*
X151130000Y-58420000D03*
G04 #@! TD*
G04 #@! TO.P,D3,2*
G04 #@! TO.N,Net-(D3-Pad2)*
X151130000Y-78740000D03*
D11*
G04 #@! TO.P,D3,1*
G04 #@! TO.N,Net-(D3-Pad1)*
X148590000Y-78740000D03*
G04 #@! TD*
G04 #@! TO.P,D4,1*
G04 #@! TO.N,Net-(D4-Pad1)*
X148590000Y-99060000D03*
D10*
G04 #@! TO.P,D4,2*
G04 #@! TO.N,Net-(D4-Pad2)*
X151130000Y-99060000D03*
G04 #@! TD*
D12*
G04 #@! TO.P,SW1,1*
G04 #@! TO.N,GND*
X152400000Y-27940000D03*
G04 #@! TO.P,SW1,2*
G04 #@! TO.N,Net-(SW1-Pad2)*
X146050000Y-30480000D03*
G04 #@! TD*
G04 #@! TO.P,SW2,2*
G04 #@! TO.N,Net-(SW2-Pad2)*
X146050000Y-50800000D03*
G04 #@! TO.P,SW2,1*
G04 #@! TO.N,GND*
X152400000Y-48260000D03*
G04 #@! TD*
G04 #@! TO.P,SW3,1*
G04 #@! TO.N,GND*
X152400000Y-68580000D03*
G04 #@! TO.P,SW3,2*
G04 #@! TO.N,Net-(R1-Pad2)*
X146050000Y-71120000D03*
G04 #@! TD*
G04 #@! TO.P,SW4,2*
G04 #@! TO.N,Net-(R2-Pad2)*
X146050000Y-91440000D03*
G04 #@! TO.P,SW4,1*
G04 #@! TO.N,GND*
X152400000Y-88900000D03*
G04 #@! TD*
D13*
G04 #@! TO.P,U2,2*
G04 #@! TO.N,Net-(R7-Pad1)*
X176530000Y-38100000D03*
G04 #@! TO.P,U2,3*
G04 #@! TO.N,+3V3*
X177800000Y-38100000D03*
D14*
G04 #@! TO.P,U2,1*
G04 #@! TO.N,GND*
X175260000Y-38100000D03*
G04 #@! TD*
D15*
G04 #@! TO.N,Net-(D1-Pad2)*
X175260000Y-62230000D02*
X151130000Y-38100000D01*
X187960000Y-62230000D02*
X175260000Y-62230000D01*
G04 #@! TO.N,Net-(D2-Pad2)*
X151130000Y-59692792D02*
X151130000Y-58420000D01*
X175260000Y-77470000D02*
X165197998Y-77470000D01*
X187960000Y-64770000D02*
X175260000Y-77470000D01*
X165197998Y-77470000D02*
X151130000Y-63402002D01*
X151130000Y-63402002D02*
X151130000Y-59692792D01*
G04 #@! TO.N,Net-(D3-Pad2)*
X176530000Y-78740000D02*
X151130000Y-78740000D01*
X187960000Y-67310000D02*
X176530000Y-78740000D01*
G04 #@! TO.N,Net-(D4-Pad2)*
X158750000Y-99060000D02*
X151130000Y-99060000D01*
X187960000Y-69850000D02*
X158750000Y-99060000D01*
G04 #@! TO.N,GND*
X164200001Y-58790001D02*
X165100000Y-59690000D01*
X161500001Y-56090001D02*
X164200001Y-58790001D01*
X146050000Y-57809998D02*
X147769997Y-56090001D01*
X147769997Y-56090001D02*
X161500001Y-56090001D01*
X146050000Y-62230000D02*
X146050000Y-57809998D01*
X152400000Y-88900000D02*
X142240000Y-78740000D01*
X146050000Y-68381998D02*
X146050000Y-62230000D01*
X142240000Y-72191998D02*
X146050000Y-68381998D01*
X142240000Y-78740000D02*
X142240000Y-72191998D01*
X146248002Y-68580000D02*
X146050000Y-68381998D01*
X152400000Y-68580000D02*
X146248002Y-68580000D01*
G04 #@! TD*
D16*
G04 #@! TO.N,GND*
G36*
X190373000Y-105283000D02*
X133477000Y-105283000D01*
X133477000Y-93684615D01*
X143295000Y-93684615D01*
X143295000Y-94275385D01*
X143521078Y-94821185D01*
X143938815Y-95238922D01*
X144484615Y-95465000D01*
X145075385Y-95465000D01*
X145621185Y-95238922D01*
X146038922Y-94821185D01*
X146265000Y-94275385D01*
X146265000Y-93684615D01*
X146170249Y-93455866D01*
X147225000Y-93455866D01*
X147225000Y-94504134D01*
X147626155Y-95472608D01*
X148367392Y-96213845D01*
X149335866Y-96615000D01*
X150384134Y-96615000D01*
X151352608Y-96213845D01*
X152093845Y-95472608D01*
X152495000Y-94504134D01*
X152495000Y-93684615D01*
X153455000Y-93684615D01*
X153455000Y-94275385D01*
X153681078Y-94821185D01*
X154098815Y-95238922D01*
X154644615Y-95465000D01*
X155235385Y-95465000D01*
X155781185Y-95238922D01*
X156198922Y-94821185D01*
X156425000Y-94275385D01*
X156425000Y-93684615D01*
X156198922Y-93138815D01*
X155781185Y-92721078D01*
X155235385Y-92495000D01*
X154644615Y-92495000D01*
X154098815Y-92721078D01*
X153681078Y-93138815D01*
X153455000Y-93684615D01*
X152495000Y-93684615D01*
X152495000Y-93455866D01*
X152093845Y-92487392D01*
X151352608Y-91746155D01*
X150384134Y-91345000D01*
X149335866Y-91345000D01*
X148367392Y-91746155D01*
X147626155Y-92487392D01*
X147225000Y-93455866D01*
X146170249Y-93455866D01*
X146053910Y-93175000D01*
X146395113Y-93175000D01*
X147032799Y-92910862D01*
X147520862Y-92422799D01*
X147785000Y-91785113D01*
X147785000Y-91094887D01*
X147520862Y-90457201D01*
X147188529Y-90124868D01*
X151354737Y-90124868D01*
X151465641Y-90402099D01*
X152111593Y-90645323D01*
X152801453Y-90622836D01*
X153334359Y-90402099D01*
X153445263Y-90124868D01*
X152400000Y-89079605D01*
X151354737Y-90124868D01*
X147188529Y-90124868D01*
X147032799Y-89969138D01*
X146395113Y-89705000D01*
X145704887Y-89705000D01*
X145067201Y-89969138D01*
X144579138Y-90457201D01*
X144315000Y-91094887D01*
X144315000Y-91785113D01*
X144579138Y-92422799D01*
X144651339Y-92495000D01*
X144484615Y-92495000D01*
X143938815Y-92721078D01*
X143521078Y-93138815D01*
X143295000Y-93684615D01*
X133477000Y-93684615D01*
X133477000Y-88611593D01*
X150654677Y-88611593D01*
X150677164Y-89301453D01*
X150897901Y-89834359D01*
X151175132Y-89945263D01*
X152220395Y-88900000D01*
X152579605Y-88900000D01*
X153624868Y-89945263D01*
X153902099Y-89834359D01*
X154145323Y-89188407D01*
X154122836Y-88498547D01*
X153902099Y-87965641D01*
X153624868Y-87854737D01*
X152579605Y-88900000D01*
X152220395Y-88900000D01*
X151175132Y-87854737D01*
X150897901Y-87965641D01*
X150654677Y-88611593D01*
X133477000Y-88611593D01*
X133477000Y-85915431D01*
X134925000Y-85915431D01*
X134925000Y-86804569D01*
X135265259Y-87626026D01*
X135893974Y-88254741D01*
X136715431Y-88595000D01*
X137604569Y-88595000D01*
X138426026Y-88254741D01*
X139005635Y-87675132D01*
X151354737Y-87675132D01*
X152400000Y-88720395D01*
X153445263Y-87675132D01*
X153334359Y-87397901D01*
X152688407Y-87154677D01*
X151998547Y-87177164D01*
X151465641Y-87397901D01*
X151354737Y-87675132D01*
X139005635Y-87675132D01*
X139054741Y-87626026D01*
X139395000Y-86804569D01*
X139395000Y-85915431D01*
X139054741Y-85093974D01*
X138426026Y-84465259D01*
X137604569Y-84125000D01*
X136715431Y-84125000D01*
X135893974Y-84465259D01*
X135265259Y-85093974D01*
X134925000Y-85915431D01*
X133477000Y-85915431D01*
X133477000Y-73364615D01*
X143295000Y-73364615D01*
X143295000Y-73955385D01*
X143521078Y-74501185D01*
X143938815Y-74918922D01*
X144484615Y-75145000D01*
X145075385Y-75145000D01*
X145621185Y-74918922D01*
X146038922Y-74501185D01*
X146265000Y-73955385D01*
X146265000Y-73364615D01*
X146170249Y-73135866D01*
X147225000Y-73135866D01*
X147225000Y-74184134D01*
X147626155Y-75152608D01*
X148367392Y-75893845D01*
X149335866Y-76295000D01*
X150384134Y-76295000D01*
X151352608Y-75893845D01*
X152093845Y-75152608D01*
X152495000Y-74184134D01*
X152495000Y-73364615D01*
X153455000Y-73364615D01*
X153455000Y-73955385D01*
X153681078Y-74501185D01*
X154098815Y-74918922D01*
X154644615Y-75145000D01*
X155235385Y-75145000D01*
X155781185Y-74918922D01*
X156198922Y-74501185D01*
X156425000Y-73955385D01*
X156425000Y-73364615D01*
X156198922Y-72818815D01*
X155781185Y-72401078D01*
X155235385Y-72175000D01*
X154644615Y-72175000D01*
X154098815Y-72401078D01*
X153681078Y-72818815D01*
X153455000Y-73364615D01*
X152495000Y-73364615D01*
X152495000Y-73135866D01*
X152093845Y-72167392D01*
X151352608Y-71426155D01*
X150384134Y-71025000D01*
X149335866Y-71025000D01*
X148367392Y-71426155D01*
X147626155Y-72167392D01*
X147225000Y-73135866D01*
X146170249Y-73135866D01*
X146053910Y-72855000D01*
X146395113Y-72855000D01*
X147032799Y-72590862D01*
X147520862Y-72102799D01*
X147785000Y-71465113D01*
X147785000Y-70774887D01*
X147520862Y-70137201D01*
X147188529Y-69804868D01*
X151354737Y-69804868D01*
X151465641Y-70082099D01*
X152111593Y-70325323D01*
X152801453Y-70302836D01*
X153334359Y-70082099D01*
X153445263Y-69804868D01*
X152400000Y-68759605D01*
X151354737Y-69804868D01*
X147188529Y-69804868D01*
X147032799Y-69649138D01*
X146395113Y-69385000D01*
X145704887Y-69385000D01*
X145067201Y-69649138D01*
X144579138Y-70137201D01*
X144315000Y-70774887D01*
X144315000Y-71465113D01*
X144579138Y-72102799D01*
X144651339Y-72175000D01*
X144484615Y-72175000D01*
X143938815Y-72401078D01*
X143521078Y-72818815D01*
X143295000Y-73364615D01*
X133477000Y-73364615D01*
X133477000Y-68291593D01*
X150654677Y-68291593D01*
X150677164Y-68981453D01*
X150897901Y-69514359D01*
X151175132Y-69625263D01*
X152220395Y-68580000D01*
X152579605Y-68580000D01*
X153624868Y-69625263D01*
X153902099Y-69514359D01*
X154145323Y-68868407D01*
X154122836Y-68178547D01*
X153902099Y-67645641D01*
X153624868Y-67534737D01*
X152579605Y-68580000D01*
X152220395Y-68580000D01*
X151175132Y-67534737D01*
X150897901Y-67645641D01*
X150654677Y-68291593D01*
X133477000Y-68291593D01*
X133477000Y-65595431D01*
X134925000Y-65595431D01*
X134925000Y-66484569D01*
X135265259Y-67306026D01*
X135893974Y-67934741D01*
X136715431Y-68275000D01*
X137604569Y-68275000D01*
X138426026Y-67934741D01*
X139005635Y-67355132D01*
X151354737Y-67355132D01*
X152400000Y-68400395D01*
X153445263Y-67355132D01*
X153334359Y-67077901D01*
X152688407Y-66834677D01*
X151998547Y-66857164D01*
X151465641Y-67077901D01*
X151354737Y-67355132D01*
X139005635Y-67355132D01*
X139054741Y-67306026D01*
X139395000Y-66484569D01*
X139395000Y-65595431D01*
X139054741Y-64773974D01*
X138426026Y-64145259D01*
X137604569Y-63805000D01*
X136715431Y-63805000D01*
X135893974Y-64145259D01*
X135265259Y-64773974D01*
X134925000Y-65595431D01*
X133477000Y-65595431D01*
X133477000Y-56844670D01*
X163565000Y-56844670D01*
X163565000Y-57455330D01*
X163798690Y-58019507D01*
X164230493Y-58451310D01*
X164250115Y-58459438D01*
X164199446Y-58609841D01*
X165100000Y-59510395D01*
X166000554Y-58609841D01*
X165949885Y-58459438D01*
X165969507Y-58451310D01*
X166401310Y-58019507D01*
X166635000Y-57455330D01*
X166635000Y-56844670D01*
X166401310Y-56280493D01*
X165969507Y-55848690D01*
X165405330Y-55615000D01*
X164794670Y-55615000D01*
X164230493Y-55848690D01*
X163798690Y-56280493D01*
X163565000Y-56844670D01*
X133477000Y-56844670D01*
X133477000Y-53044615D01*
X143295000Y-53044615D01*
X143295000Y-53635385D01*
X143521078Y-54181185D01*
X143938815Y-54598922D01*
X144484615Y-54825000D01*
X145075385Y-54825000D01*
X145621185Y-54598922D01*
X146038922Y-54181185D01*
X146265000Y-53635385D01*
X146265000Y-53044615D01*
X146170249Y-52815866D01*
X147225000Y-52815866D01*
X147225000Y-53864134D01*
X147626155Y-54832608D01*
X148367392Y-55573845D01*
X149335866Y-55975000D01*
X150384134Y-55975000D01*
X151352608Y-55573845D01*
X152093845Y-54832608D01*
X152495000Y-53864134D01*
X152495000Y-53044615D01*
X153455000Y-53044615D01*
X153455000Y-53635385D01*
X153681078Y-54181185D01*
X154098815Y-54598922D01*
X154644615Y-54825000D01*
X155235385Y-54825000D01*
X155781185Y-54598922D01*
X156198922Y-54181185D01*
X156425000Y-53635385D01*
X156425000Y-53044615D01*
X156198922Y-52498815D01*
X155781185Y-52081078D01*
X155235385Y-51855000D01*
X154644615Y-51855000D01*
X154098815Y-52081078D01*
X153681078Y-52498815D01*
X153455000Y-53044615D01*
X152495000Y-53044615D01*
X152495000Y-52815866D01*
X152093845Y-51847392D01*
X151352608Y-51106155D01*
X150384134Y-50705000D01*
X149335866Y-50705000D01*
X148367392Y-51106155D01*
X147626155Y-51847392D01*
X147225000Y-52815866D01*
X146170249Y-52815866D01*
X146053910Y-52535000D01*
X146395113Y-52535000D01*
X147032799Y-52270862D01*
X147520862Y-51782799D01*
X147785000Y-51145113D01*
X147785000Y-50454887D01*
X147520862Y-49817201D01*
X147188529Y-49484868D01*
X151354737Y-49484868D01*
X151465641Y-49762099D01*
X152111593Y-50005323D01*
X152801453Y-49982836D01*
X153334359Y-49762099D01*
X153445263Y-49484868D01*
X152400000Y-48439605D01*
X151354737Y-49484868D01*
X147188529Y-49484868D01*
X147032799Y-49329138D01*
X146395113Y-49065000D01*
X145704887Y-49065000D01*
X145067201Y-49329138D01*
X144579138Y-49817201D01*
X144315000Y-50454887D01*
X144315000Y-51145113D01*
X144579138Y-51782799D01*
X144651339Y-51855000D01*
X144484615Y-51855000D01*
X143938815Y-52081078D01*
X143521078Y-52498815D01*
X143295000Y-53044615D01*
X133477000Y-53044615D01*
X133477000Y-47815431D01*
X134925000Y-47815431D01*
X134925000Y-48704569D01*
X135265259Y-49526026D01*
X135893974Y-50154741D01*
X136715431Y-50495000D01*
X137604569Y-50495000D01*
X138426026Y-50154741D01*
X139054741Y-49526026D01*
X139395000Y-48704569D01*
X139395000Y-47971593D01*
X150654677Y-47971593D01*
X150677164Y-48661453D01*
X150897901Y-49194359D01*
X151175132Y-49305263D01*
X152220395Y-48260000D01*
X152579605Y-48260000D01*
X153624868Y-49305263D01*
X153902099Y-49194359D01*
X154145323Y-48548407D01*
X154122836Y-47858547D01*
X153902099Y-47325641D01*
X153624868Y-47214737D01*
X152579605Y-48260000D01*
X152220395Y-48260000D01*
X151175132Y-47214737D01*
X150897901Y-47325641D01*
X150654677Y-47971593D01*
X139395000Y-47971593D01*
X139395000Y-47815431D01*
X139071790Y-47035132D01*
X151354737Y-47035132D01*
X152400000Y-48080395D01*
X153445263Y-47035132D01*
X153334359Y-46757901D01*
X152688407Y-46514677D01*
X151998547Y-46537164D01*
X151465641Y-46757901D01*
X151354737Y-47035132D01*
X139071790Y-47035132D01*
X139054741Y-46993974D01*
X138426026Y-46365259D01*
X137604569Y-46025000D01*
X136715431Y-46025000D01*
X135893974Y-46365259D01*
X135265259Y-46993974D01*
X134925000Y-47815431D01*
X133477000Y-47815431D01*
X133477000Y-37200000D01*
X147042560Y-37200000D01*
X147042560Y-39000000D01*
X147091843Y-39247765D01*
X147232191Y-39457809D01*
X147442235Y-39598157D01*
X147690000Y-39647440D01*
X149490000Y-39647440D01*
X149737765Y-39598157D01*
X149947809Y-39457809D01*
X150088157Y-39247765D01*
X150091275Y-39232092D01*
X150260493Y-39401310D01*
X150824670Y-39635000D01*
X151413422Y-39635000D01*
X174572577Y-62794156D01*
X174621951Y-62868049D01*
X174695844Y-62917423D01*
X174695845Y-62917424D01*
X174806880Y-62991615D01*
X174914690Y-63063652D01*
X175172835Y-63115000D01*
X175172839Y-63115000D01*
X175259999Y-63132337D01*
X175347159Y-63115000D01*
X186674183Y-63115000D01*
X187059183Y-63500000D01*
X186658690Y-63900493D01*
X186425000Y-64464670D01*
X186425000Y-65053421D01*
X174893422Y-76585000D01*
X165564577Y-76585000D01*
X165433082Y-76453505D01*
X165969507Y-76231310D01*
X166401310Y-75799507D01*
X166635000Y-75235330D01*
X166635000Y-74624670D01*
X166401310Y-74060493D01*
X166000817Y-73660000D01*
X166401310Y-73259507D01*
X166635000Y-72695330D01*
X166635000Y-72084670D01*
X166401310Y-71520493D01*
X166000817Y-71120000D01*
X166401310Y-70719507D01*
X166635000Y-70155330D01*
X166635000Y-69544670D01*
X166401310Y-68980493D01*
X166000817Y-68580000D01*
X166401310Y-68179507D01*
X166635000Y-67615330D01*
X166635000Y-67004670D01*
X166401310Y-66440493D01*
X166000817Y-66040000D01*
X166401310Y-65639507D01*
X166635000Y-65075330D01*
X166635000Y-64464670D01*
X166401310Y-63900493D01*
X166000817Y-63500000D01*
X166401310Y-63099507D01*
X166635000Y-62535330D01*
X166635000Y-61924670D01*
X166401310Y-61360493D01*
X165969507Y-60928690D01*
X165949885Y-60920562D01*
X166000554Y-60770159D01*
X165100000Y-59869605D01*
X164199446Y-60770159D01*
X164250115Y-60920562D01*
X164230493Y-60928690D01*
X163798690Y-61360493D01*
X163565000Y-61924670D01*
X163565000Y-62535330D01*
X163798690Y-63099507D01*
X164199183Y-63500000D01*
X163798690Y-63900493D01*
X163565000Y-64464670D01*
X163565000Y-65075330D01*
X163798690Y-65639507D01*
X164199183Y-66040000D01*
X163798690Y-66440493D01*
X163565000Y-67004670D01*
X163565000Y-67615330D01*
X163798690Y-68179507D01*
X164199183Y-68580000D01*
X163798690Y-68980493D01*
X163565000Y-69544670D01*
X163565000Y-70155330D01*
X163798690Y-70719507D01*
X164199183Y-71120000D01*
X163798690Y-71520493D01*
X163565000Y-72084670D01*
X163565000Y-72695330D01*
X163798690Y-73259507D01*
X164199183Y-73660000D01*
X163798690Y-74060493D01*
X163576495Y-74596918D01*
X152015000Y-63035424D01*
X152015000Y-59705817D01*
X152271481Y-59449336D01*
X163553542Y-59449336D01*
X163579161Y-60059460D01*
X163763357Y-60504148D01*
X164019841Y-60590554D01*
X164920395Y-59690000D01*
X165279605Y-59690000D01*
X166180159Y-60590554D01*
X166436643Y-60504148D01*
X166646458Y-59930664D01*
X166620839Y-59320540D01*
X166436643Y-58875852D01*
X166180159Y-58789446D01*
X165279605Y-59690000D01*
X164920395Y-59690000D01*
X164019841Y-58789446D01*
X163763357Y-58875852D01*
X163553542Y-59449336D01*
X152271481Y-59449336D01*
X152431310Y-59289507D01*
X152665000Y-58725330D01*
X152665000Y-58114670D01*
X152431310Y-57550493D01*
X151999507Y-57118690D01*
X151435330Y-56885000D01*
X150824670Y-56885000D01*
X150260493Y-57118690D01*
X150091275Y-57287908D01*
X150088157Y-57272235D01*
X149947809Y-57062191D01*
X149737765Y-56921843D01*
X149490000Y-56872560D01*
X147690000Y-56872560D01*
X147442235Y-56921843D01*
X147232191Y-57062191D01*
X147091843Y-57272235D01*
X147042560Y-57520000D01*
X147042560Y-59320000D01*
X147091843Y-59567765D01*
X147232191Y-59777809D01*
X147442235Y-59918157D01*
X147690000Y-59967440D01*
X149490000Y-59967440D01*
X149737765Y-59918157D01*
X149947809Y-59777809D01*
X150088157Y-59567765D01*
X150091275Y-59552092D01*
X150245000Y-59705817D01*
X150245000Y-59779956D01*
X150245001Y-59779961D01*
X150245000Y-63314841D01*
X150227663Y-63402002D01*
X150245000Y-63489163D01*
X150245000Y-63489166D01*
X150296348Y-63747311D01*
X150491951Y-64040051D01*
X150565847Y-64089427D01*
X164331419Y-77855000D01*
X152415817Y-77855000D01*
X151999507Y-77438690D01*
X151435330Y-77205000D01*
X150824670Y-77205000D01*
X150260493Y-77438690D01*
X150091275Y-77607908D01*
X150088157Y-77592235D01*
X149947809Y-77382191D01*
X149737765Y-77241843D01*
X149490000Y-77192560D01*
X147690000Y-77192560D01*
X147442235Y-77241843D01*
X147232191Y-77382191D01*
X147091843Y-77592235D01*
X147042560Y-77840000D01*
X147042560Y-79640000D01*
X147091843Y-79887765D01*
X147232191Y-80097809D01*
X147442235Y-80238157D01*
X147690000Y-80287440D01*
X149490000Y-80287440D01*
X149737765Y-80238157D01*
X149947809Y-80097809D01*
X150088157Y-79887765D01*
X150091275Y-79872092D01*
X150260493Y-80041310D01*
X150824670Y-80275000D01*
X151435330Y-80275000D01*
X151999507Y-80041310D01*
X152415817Y-79625000D01*
X176442839Y-79625000D01*
X176530000Y-79642337D01*
X176617161Y-79625000D01*
X176617165Y-79625000D01*
X176875310Y-79573652D01*
X177168049Y-79378049D01*
X177217425Y-79304153D01*
X186425000Y-70096579D01*
X186425000Y-70133421D01*
X158383422Y-98175000D01*
X152415817Y-98175000D01*
X151999507Y-97758690D01*
X151435330Y-97525000D01*
X150824670Y-97525000D01*
X150260493Y-97758690D01*
X150091275Y-97927908D01*
X150088157Y-97912235D01*
X149947809Y-97702191D01*
X149737765Y-97561843D01*
X149490000Y-97512560D01*
X147690000Y-97512560D01*
X147442235Y-97561843D01*
X147232191Y-97702191D01*
X147091843Y-97912235D01*
X147042560Y-98160000D01*
X147042560Y-99960000D01*
X147091843Y-100207765D01*
X147232191Y-100417809D01*
X147442235Y-100558157D01*
X147690000Y-100607440D01*
X149490000Y-100607440D01*
X149737765Y-100558157D01*
X149947809Y-100417809D01*
X150088157Y-100207765D01*
X150091275Y-100192092D01*
X150260493Y-100361310D01*
X150824670Y-100595000D01*
X151435330Y-100595000D01*
X151999507Y-100361310D01*
X152415817Y-99945000D01*
X158662839Y-99945000D01*
X158750000Y-99962337D01*
X158837161Y-99945000D01*
X158837165Y-99945000D01*
X159095310Y-99893652D01*
X159388049Y-99698049D01*
X159437425Y-99624153D01*
X160446147Y-98615431D01*
X181915000Y-98615431D01*
X181915000Y-99504569D01*
X182255259Y-100326026D01*
X182883974Y-100954741D01*
X183705431Y-101295000D01*
X184594569Y-101295000D01*
X185416026Y-100954741D01*
X186044741Y-100326026D01*
X186385000Y-99504569D01*
X186385000Y-98615431D01*
X186044741Y-97793974D01*
X185416026Y-97165259D01*
X184594569Y-96825000D01*
X183705431Y-96825000D01*
X182883974Y-97165259D01*
X182255259Y-97793974D01*
X181915000Y-98615431D01*
X160446147Y-98615431D01*
X186425000Y-72636579D01*
X186425000Y-72695330D01*
X186658690Y-73259507D01*
X187059183Y-73660000D01*
X186658690Y-74060493D01*
X186425000Y-74624670D01*
X186425000Y-75235330D01*
X186658690Y-75799507D01*
X187090493Y-76231310D01*
X187654670Y-76465000D01*
X188265330Y-76465000D01*
X188829507Y-76231310D01*
X189261310Y-75799507D01*
X189495000Y-75235330D01*
X189495000Y-74624670D01*
X189261310Y-74060493D01*
X188860817Y-73660000D01*
X189261310Y-73259507D01*
X189495000Y-72695330D01*
X189495000Y-72084670D01*
X189261310Y-71520493D01*
X188860817Y-71120000D01*
X189261310Y-70719507D01*
X189495000Y-70155330D01*
X189495000Y-69544670D01*
X189261310Y-68980493D01*
X188860817Y-68580000D01*
X189261310Y-68179507D01*
X189495000Y-67615330D01*
X189495000Y-67004670D01*
X189261310Y-66440493D01*
X188860817Y-66040000D01*
X189261310Y-65639507D01*
X189495000Y-65075330D01*
X189495000Y-64464670D01*
X189261310Y-63900493D01*
X188860817Y-63500000D01*
X189261310Y-63099507D01*
X189495000Y-62535330D01*
X189495000Y-61924670D01*
X189261310Y-61360493D01*
X188860817Y-60960000D01*
X189261310Y-60559507D01*
X189495000Y-59995330D01*
X189495000Y-59384670D01*
X189261310Y-58820493D01*
X188860817Y-58420000D01*
X189261310Y-58019507D01*
X189495000Y-57455330D01*
X189495000Y-56844670D01*
X189261310Y-56280493D01*
X188829507Y-55848690D01*
X188265330Y-55615000D01*
X187654670Y-55615000D01*
X187090493Y-55848690D01*
X186658690Y-56280493D01*
X186425000Y-56844670D01*
X186425000Y-57455330D01*
X186658690Y-58019507D01*
X187059183Y-58420000D01*
X186658690Y-58820493D01*
X186425000Y-59384670D01*
X186425000Y-59995330D01*
X186658690Y-60559507D01*
X187059183Y-60960000D01*
X186674183Y-61345000D01*
X175626579Y-61345000D01*
X152667329Y-38385750D01*
X174100000Y-38385750D01*
X174100000Y-38976310D01*
X174196673Y-39209699D01*
X174375302Y-39388327D01*
X174608691Y-39485000D01*
X174974250Y-39485000D01*
X175133000Y-39326250D01*
X175133000Y-38227000D01*
X174258750Y-38227000D01*
X174100000Y-38385750D01*
X152667329Y-38385750D01*
X152665000Y-38383422D01*
X152665000Y-37794670D01*
X152431310Y-37230493D01*
X152424507Y-37223690D01*
X174100000Y-37223690D01*
X174100000Y-37814250D01*
X174258750Y-37973000D01*
X175133000Y-37973000D01*
X175133000Y-37760755D01*
X175370000Y-37760755D01*
X175370000Y-38439246D01*
X175387000Y-38524710D01*
X175387000Y-39326250D01*
X175545750Y-39485000D01*
X175911309Y-39485000D01*
X176076016Y-39416776D01*
X176077392Y-39417695D01*
X176530000Y-39507725D01*
X176982609Y-39417695D01*
X177165001Y-39295825D01*
X177347392Y-39417695D01*
X177800000Y-39507725D01*
X178252609Y-39417695D01*
X178636313Y-39161313D01*
X178892695Y-38777608D01*
X178960000Y-38439245D01*
X178960000Y-37760754D01*
X178892695Y-37422391D01*
X178636313Y-37038687D01*
X178252608Y-36782305D01*
X177800000Y-36692275D01*
X177347391Y-36782305D01*
X177165000Y-36904175D01*
X176982608Y-36782305D01*
X176530000Y-36692275D01*
X176077391Y-36782305D01*
X176076016Y-36783224D01*
X175911309Y-36715000D01*
X175545750Y-36715000D01*
X175387000Y-36873750D01*
X175387000Y-37675291D01*
X175370000Y-37760755D01*
X175133000Y-37760755D01*
X175133000Y-36873750D01*
X174974250Y-36715000D01*
X174608691Y-36715000D01*
X174375302Y-36811673D01*
X174196673Y-36990301D01*
X174100000Y-37223690D01*
X152424507Y-37223690D01*
X151999507Y-36798690D01*
X151435330Y-36565000D01*
X150824670Y-36565000D01*
X150260493Y-36798690D01*
X150091275Y-36967908D01*
X150088157Y-36952235D01*
X149947809Y-36742191D01*
X149737765Y-36601843D01*
X149490000Y-36552560D01*
X147690000Y-36552560D01*
X147442235Y-36601843D01*
X147232191Y-36742191D01*
X147091843Y-36952235D01*
X147042560Y-37200000D01*
X133477000Y-37200000D01*
X133477000Y-32724615D01*
X143295000Y-32724615D01*
X143295000Y-33315385D01*
X143521078Y-33861185D01*
X143938815Y-34278922D01*
X144484615Y-34505000D01*
X145075385Y-34505000D01*
X145621185Y-34278922D01*
X146038922Y-33861185D01*
X146265000Y-33315385D01*
X146265000Y-32724615D01*
X146170249Y-32495866D01*
X147225000Y-32495866D01*
X147225000Y-33544134D01*
X147626155Y-34512608D01*
X148367392Y-35253845D01*
X149335866Y-35655000D01*
X150384134Y-35655000D01*
X151352608Y-35253845D01*
X152093845Y-34512608D01*
X152495000Y-33544134D01*
X152495000Y-32724615D01*
X153455000Y-32724615D01*
X153455000Y-33315385D01*
X153681078Y-33861185D01*
X154098815Y-34278922D01*
X154644615Y-34505000D01*
X155235385Y-34505000D01*
X155781185Y-34278922D01*
X156198922Y-33861185D01*
X156425000Y-33315385D01*
X156425000Y-32724615D01*
X156198922Y-32178815D01*
X155781185Y-31761078D01*
X155235385Y-31535000D01*
X154644615Y-31535000D01*
X154098815Y-31761078D01*
X153681078Y-32178815D01*
X153455000Y-32724615D01*
X152495000Y-32724615D01*
X152495000Y-32495866D01*
X152093845Y-31527392D01*
X151352608Y-30786155D01*
X150384134Y-30385000D01*
X149335866Y-30385000D01*
X148367392Y-30786155D01*
X147626155Y-31527392D01*
X147225000Y-32495866D01*
X146170249Y-32495866D01*
X146053910Y-32215000D01*
X146395113Y-32215000D01*
X147032799Y-31950862D01*
X147520862Y-31462799D01*
X147785000Y-30825113D01*
X147785000Y-30134887D01*
X147520862Y-29497201D01*
X147188529Y-29164868D01*
X151354737Y-29164868D01*
X151465641Y-29442099D01*
X152111593Y-29685323D01*
X152801453Y-29662836D01*
X153334359Y-29442099D01*
X153445263Y-29164868D01*
X152400000Y-28119605D01*
X151354737Y-29164868D01*
X147188529Y-29164868D01*
X147032799Y-29009138D01*
X146395113Y-28745000D01*
X145704887Y-28745000D01*
X145067201Y-29009138D01*
X144579138Y-29497201D01*
X144315000Y-30134887D01*
X144315000Y-30825113D01*
X144579138Y-31462799D01*
X144651339Y-31535000D01*
X144484615Y-31535000D01*
X143938815Y-31761078D01*
X143521078Y-32178815D01*
X143295000Y-32724615D01*
X133477000Y-32724615D01*
X133477000Y-27495431D01*
X134925000Y-27495431D01*
X134925000Y-28384569D01*
X135265259Y-29206026D01*
X135893974Y-29834741D01*
X136715431Y-30175000D01*
X137604569Y-30175000D01*
X138426026Y-29834741D01*
X139054741Y-29206026D01*
X139395000Y-28384569D01*
X139395000Y-27651593D01*
X150654677Y-27651593D01*
X150677164Y-28341453D01*
X150897901Y-28874359D01*
X151175132Y-28985263D01*
X152220395Y-27940000D01*
X152579605Y-27940000D01*
X153624868Y-28985263D01*
X153902099Y-28874359D01*
X154145323Y-28228407D01*
X154122836Y-27538547D01*
X154104977Y-27495431D01*
X181915000Y-27495431D01*
X181915000Y-28384569D01*
X182255259Y-29206026D01*
X182883974Y-29834741D01*
X183705431Y-30175000D01*
X184594569Y-30175000D01*
X185416026Y-29834741D01*
X186044741Y-29206026D01*
X186385000Y-28384569D01*
X186385000Y-27495431D01*
X186044741Y-26673974D01*
X185416026Y-26045259D01*
X184594569Y-25705000D01*
X183705431Y-25705000D01*
X182883974Y-26045259D01*
X182255259Y-26673974D01*
X181915000Y-27495431D01*
X154104977Y-27495431D01*
X153902099Y-27005641D01*
X153624868Y-26894737D01*
X152579605Y-27940000D01*
X152220395Y-27940000D01*
X151175132Y-26894737D01*
X150897901Y-27005641D01*
X150654677Y-27651593D01*
X139395000Y-27651593D01*
X139395000Y-27495431D01*
X139071790Y-26715132D01*
X151354737Y-26715132D01*
X152400000Y-27760395D01*
X153445263Y-26715132D01*
X153334359Y-26437901D01*
X152688407Y-26194677D01*
X151998547Y-26217164D01*
X151465641Y-26437901D01*
X151354737Y-26715132D01*
X139071790Y-26715132D01*
X139054741Y-26673974D01*
X138426026Y-26045259D01*
X137604569Y-25705000D01*
X136715431Y-25705000D01*
X135893974Y-26045259D01*
X135265259Y-26673974D01*
X134925000Y-27495431D01*
X133477000Y-27495431D01*
X133477000Y-22987000D01*
X190373000Y-22987000D01*
X190373000Y-105283000D01*
X190373000Y-105283000D01*
G37*
X190373000Y-105283000D02*
X133477000Y-105283000D01*
X133477000Y-93684615D01*
X143295000Y-93684615D01*
X143295000Y-94275385D01*
X143521078Y-94821185D01*
X143938815Y-95238922D01*
X144484615Y-95465000D01*
X145075385Y-95465000D01*
X145621185Y-95238922D01*
X146038922Y-94821185D01*
X146265000Y-94275385D01*
X146265000Y-93684615D01*
X146170249Y-93455866D01*
X147225000Y-93455866D01*
X147225000Y-94504134D01*
X147626155Y-95472608D01*
X148367392Y-96213845D01*
X149335866Y-96615000D01*
X150384134Y-96615000D01*
X151352608Y-96213845D01*
X152093845Y-95472608D01*
X152495000Y-94504134D01*
X152495000Y-93684615D01*
X153455000Y-93684615D01*
X153455000Y-94275385D01*
X153681078Y-94821185D01*
X154098815Y-95238922D01*
X154644615Y-95465000D01*
X155235385Y-95465000D01*
X155781185Y-95238922D01*
X156198922Y-94821185D01*
X156425000Y-94275385D01*
X156425000Y-93684615D01*
X156198922Y-93138815D01*
X155781185Y-92721078D01*
X155235385Y-92495000D01*
X154644615Y-92495000D01*
X154098815Y-92721078D01*
X153681078Y-93138815D01*
X153455000Y-93684615D01*
X152495000Y-93684615D01*
X152495000Y-93455866D01*
X152093845Y-92487392D01*
X151352608Y-91746155D01*
X150384134Y-91345000D01*
X149335866Y-91345000D01*
X148367392Y-91746155D01*
X147626155Y-92487392D01*
X147225000Y-93455866D01*
X146170249Y-93455866D01*
X146053910Y-93175000D01*
X146395113Y-93175000D01*
X147032799Y-92910862D01*
X147520862Y-92422799D01*
X147785000Y-91785113D01*
X147785000Y-91094887D01*
X147520862Y-90457201D01*
X147188529Y-90124868D01*
X151354737Y-90124868D01*
X151465641Y-90402099D01*
X152111593Y-90645323D01*
X152801453Y-90622836D01*
X153334359Y-90402099D01*
X153445263Y-90124868D01*
X152400000Y-89079605D01*
X151354737Y-90124868D01*
X147188529Y-90124868D01*
X147032799Y-89969138D01*
X146395113Y-89705000D01*
X145704887Y-89705000D01*
X145067201Y-89969138D01*
X144579138Y-90457201D01*
X144315000Y-91094887D01*
X144315000Y-91785113D01*
X144579138Y-92422799D01*
X144651339Y-92495000D01*
X144484615Y-92495000D01*
X143938815Y-92721078D01*
X143521078Y-93138815D01*
X143295000Y-93684615D01*
X133477000Y-93684615D01*
X133477000Y-88611593D01*
X150654677Y-88611593D01*
X150677164Y-89301453D01*
X150897901Y-89834359D01*
X151175132Y-89945263D01*
X152220395Y-88900000D01*
X152579605Y-88900000D01*
X153624868Y-89945263D01*
X153902099Y-89834359D01*
X154145323Y-89188407D01*
X154122836Y-88498547D01*
X153902099Y-87965641D01*
X153624868Y-87854737D01*
X152579605Y-88900000D01*
X152220395Y-88900000D01*
X151175132Y-87854737D01*
X150897901Y-87965641D01*
X150654677Y-88611593D01*
X133477000Y-88611593D01*
X133477000Y-85915431D01*
X134925000Y-85915431D01*
X134925000Y-86804569D01*
X135265259Y-87626026D01*
X135893974Y-88254741D01*
X136715431Y-88595000D01*
X137604569Y-88595000D01*
X138426026Y-88254741D01*
X139005635Y-87675132D01*
X151354737Y-87675132D01*
X152400000Y-88720395D01*
X153445263Y-87675132D01*
X153334359Y-87397901D01*
X152688407Y-87154677D01*
X151998547Y-87177164D01*
X151465641Y-87397901D01*
X151354737Y-87675132D01*
X139005635Y-87675132D01*
X139054741Y-87626026D01*
X139395000Y-86804569D01*
X139395000Y-85915431D01*
X139054741Y-85093974D01*
X138426026Y-84465259D01*
X137604569Y-84125000D01*
X136715431Y-84125000D01*
X135893974Y-84465259D01*
X135265259Y-85093974D01*
X134925000Y-85915431D01*
X133477000Y-85915431D01*
X133477000Y-73364615D01*
X143295000Y-73364615D01*
X143295000Y-73955385D01*
X143521078Y-74501185D01*
X143938815Y-74918922D01*
X144484615Y-75145000D01*
X145075385Y-75145000D01*
X145621185Y-74918922D01*
X146038922Y-74501185D01*
X146265000Y-73955385D01*
X146265000Y-73364615D01*
X146170249Y-73135866D01*
X147225000Y-73135866D01*
X147225000Y-74184134D01*
X147626155Y-75152608D01*
X148367392Y-75893845D01*
X149335866Y-76295000D01*
X150384134Y-76295000D01*
X151352608Y-75893845D01*
X152093845Y-75152608D01*
X152495000Y-74184134D01*
X152495000Y-73364615D01*
X153455000Y-73364615D01*
X153455000Y-73955385D01*
X153681078Y-74501185D01*
X154098815Y-74918922D01*
X154644615Y-75145000D01*
X155235385Y-75145000D01*
X155781185Y-74918922D01*
X156198922Y-74501185D01*
X156425000Y-73955385D01*
X156425000Y-73364615D01*
X156198922Y-72818815D01*
X155781185Y-72401078D01*
X155235385Y-72175000D01*
X154644615Y-72175000D01*
X154098815Y-72401078D01*
X153681078Y-72818815D01*
X153455000Y-73364615D01*
X152495000Y-73364615D01*
X152495000Y-73135866D01*
X152093845Y-72167392D01*
X151352608Y-71426155D01*
X150384134Y-71025000D01*
X149335866Y-71025000D01*
X148367392Y-71426155D01*
X147626155Y-72167392D01*
X147225000Y-73135866D01*
X146170249Y-73135866D01*
X146053910Y-72855000D01*
X146395113Y-72855000D01*
X147032799Y-72590862D01*
X147520862Y-72102799D01*
X147785000Y-71465113D01*
X147785000Y-70774887D01*
X147520862Y-70137201D01*
X147188529Y-69804868D01*
X151354737Y-69804868D01*
X151465641Y-70082099D01*
X152111593Y-70325323D01*
X152801453Y-70302836D01*
X153334359Y-70082099D01*
X153445263Y-69804868D01*
X152400000Y-68759605D01*
X151354737Y-69804868D01*
X147188529Y-69804868D01*
X147032799Y-69649138D01*
X146395113Y-69385000D01*
X145704887Y-69385000D01*
X145067201Y-69649138D01*
X144579138Y-70137201D01*
X144315000Y-70774887D01*
X144315000Y-71465113D01*
X144579138Y-72102799D01*
X144651339Y-72175000D01*
X144484615Y-72175000D01*
X143938815Y-72401078D01*
X143521078Y-72818815D01*
X143295000Y-73364615D01*
X133477000Y-73364615D01*
X133477000Y-68291593D01*
X150654677Y-68291593D01*
X150677164Y-68981453D01*
X150897901Y-69514359D01*
X151175132Y-69625263D01*
X152220395Y-68580000D01*
X152579605Y-68580000D01*
X153624868Y-69625263D01*
X153902099Y-69514359D01*
X154145323Y-68868407D01*
X154122836Y-68178547D01*
X153902099Y-67645641D01*
X153624868Y-67534737D01*
X152579605Y-68580000D01*
X152220395Y-68580000D01*
X151175132Y-67534737D01*
X150897901Y-67645641D01*
X150654677Y-68291593D01*
X133477000Y-68291593D01*
X133477000Y-65595431D01*
X134925000Y-65595431D01*
X134925000Y-66484569D01*
X135265259Y-67306026D01*
X135893974Y-67934741D01*
X136715431Y-68275000D01*
X137604569Y-68275000D01*
X138426026Y-67934741D01*
X139005635Y-67355132D01*
X151354737Y-67355132D01*
X152400000Y-68400395D01*
X153445263Y-67355132D01*
X153334359Y-67077901D01*
X152688407Y-66834677D01*
X151998547Y-66857164D01*
X151465641Y-67077901D01*
X151354737Y-67355132D01*
X139005635Y-67355132D01*
X139054741Y-67306026D01*
X139395000Y-66484569D01*
X139395000Y-65595431D01*
X139054741Y-64773974D01*
X138426026Y-64145259D01*
X137604569Y-63805000D01*
X136715431Y-63805000D01*
X135893974Y-64145259D01*
X135265259Y-64773974D01*
X134925000Y-65595431D01*
X133477000Y-65595431D01*
X133477000Y-56844670D01*
X163565000Y-56844670D01*
X163565000Y-57455330D01*
X163798690Y-58019507D01*
X164230493Y-58451310D01*
X164250115Y-58459438D01*
X164199446Y-58609841D01*
X165100000Y-59510395D01*
X166000554Y-58609841D01*
X165949885Y-58459438D01*
X165969507Y-58451310D01*
X166401310Y-58019507D01*
X166635000Y-57455330D01*
X166635000Y-56844670D01*
X166401310Y-56280493D01*
X165969507Y-55848690D01*
X165405330Y-55615000D01*
X164794670Y-55615000D01*
X164230493Y-55848690D01*
X163798690Y-56280493D01*
X163565000Y-56844670D01*
X133477000Y-56844670D01*
X133477000Y-53044615D01*
X143295000Y-53044615D01*
X143295000Y-53635385D01*
X143521078Y-54181185D01*
X143938815Y-54598922D01*
X144484615Y-54825000D01*
X145075385Y-54825000D01*
X145621185Y-54598922D01*
X146038922Y-54181185D01*
X146265000Y-53635385D01*
X146265000Y-53044615D01*
X146170249Y-52815866D01*
X147225000Y-52815866D01*
X147225000Y-53864134D01*
X147626155Y-54832608D01*
X148367392Y-55573845D01*
X149335866Y-55975000D01*
X150384134Y-55975000D01*
X151352608Y-55573845D01*
X152093845Y-54832608D01*
X152495000Y-53864134D01*
X152495000Y-53044615D01*
X153455000Y-53044615D01*
X153455000Y-53635385D01*
X153681078Y-54181185D01*
X154098815Y-54598922D01*
X154644615Y-54825000D01*
X155235385Y-54825000D01*
X155781185Y-54598922D01*
X156198922Y-54181185D01*
X156425000Y-53635385D01*
X156425000Y-53044615D01*
X156198922Y-52498815D01*
X155781185Y-52081078D01*
X155235385Y-51855000D01*
X154644615Y-51855000D01*
X154098815Y-52081078D01*
X153681078Y-52498815D01*
X153455000Y-53044615D01*
X152495000Y-53044615D01*
X152495000Y-52815866D01*
X152093845Y-51847392D01*
X151352608Y-51106155D01*
X150384134Y-50705000D01*
X149335866Y-50705000D01*
X148367392Y-51106155D01*
X147626155Y-51847392D01*
X147225000Y-52815866D01*
X146170249Y-52815866D01*
X146053910Y-52535000D01*
X146395113Y-52535000D01*
X147032799Y-52270862D01*
X147520862Y-51782799D01*
X147785000Y-51145113D01*
X147785000Y-50454887D01*
X147520862Y-49817201D01*
X147188529Y-49484868D01*
X151354737Y-49484868D01*
X151465641Y-49762099D01*
X152111593Y-50005323D01*
X152801453Y-49982836D01*
X153334359Y-49762099D01*
X153445263Y-49484868D01*
X152400000Y-48439605D01*
X151354737Y-49484868D01*
X147188529Y-49484868D01*
X147032799Y-49329138D01*
X146395113Y-49065000D01*
X145704887Y-49065000D01*
X145067201Y-49329138D01*
X144579138Y-49817201D01*
X144315000Y-50454887D01*
X144315000Y-51145113D01*
X144579138Y-51782799D01*
X144651339Y-51855000D01*
X144484615Y-51855000D01*
X143938815Y-52081078D01*
X143521078Y-52498815D01*
X143295000Y-53044615D01*
X133477000Y-53044615D01*
X133477000Y-47815431D01*
X134925000Y-47815431D01*
X134925000Y-48704569D01*
X135265259Y-49526026D01*
X135893974Y-50154741D01*
X136715431Y-50495000D01*
X137604569Y-50495000D01*
X138426026Y-50154741D01*
X139054741Y-49526026D01*
X139395000Y-48704569D01*
X139395000Y-47971593D01*
X150654677Y-47971593D01*
X150677164Y-48661453D01*
X150897901Y-49194359D01*
X151175132Y-49305263D01*
X152220395Y-48260000D01*
X152579605Y-48260000D01*
X153624868Y-49305263D01*
X153902099Y-49194359D01*
X154145323Y-48548407D01*
X154122836Y-47858547D01*
X153902099Y-47325641D01*
X153624868Y-47214737D01*
X152579605Y-48260000D01*
X152220395Y-48260000D01*
X151175132Y-47214737D01*
X150897901Y-47325641D01*
X150654677Y-47971593D01*
X139395000Y-47971593D01*
X139395000Y-47815431D01*
X139071790Y-47035132D01*
X151354737Y-47035132D01*
X152400000Y-48080395D01*
X153445263Y-47035132D01*
X153334359Y-46757901D01*
X152688407Y-46514677D01*
X151998547Y-46537164D01*
X151465641Y-46757901D01*
X151354737Y-47035132D01*
X139071790Y-47035132D01*
X139054741Y-46993974D01*
X138426026Y-46365259D01*
X137604569Y-46025000D01*
X136715431Y-46025000D01*
X135893974Y-46365259D01*
X135265259Y-46993974D01*
X134925000Y-47815431D01*
X133477000Y-47815431D01*
X133477000Y-37200000D01*
X147042560Y-37200000D01*
X147042560Y-39000000D01*
X147091843Y-39247765D01*
X147232191Y-39457809D01*
X147442235Y-39598157D01*
X147690000Y-39647440D01*
X149490000Y-39647440D01*
X149737765Y-39598157D01*
X149947809Y-39457809D01*
X150088157Y-39247765D01*
X150091275Y-39232092D01*
X150260493Y-39401310D01*
X150824670Y-39635000D01*
X151413422Y-39635000D01*
X174572577Y-62794156D01*
X174621951Y-62868049D01*
X174695844Y-62917423D01*
X174695845Y-62917424D01*
X174806880Y-62991615D01*
X174914690Y-63063652D01*
X175172835Y-63115000D01*
X175172839Y-63115000D01*
X175259999Y-63132337D01*
X175347159Y-63115000D01*
X186674183Y-63115000D01*
X187059183Y-63500000D01*
X186658690Y-63900493D01*
X186425000Y-64464670D01*
X186425000Y-65053421D01*
X174893422Y-76585000D01*
X165564577Y-76585000D01*
X165433082Y-76453505D01*
X165969507Y-76231310D01*
X166401310Y-75799507D01*
X166635000Y-75235330D01*
X166635000Y-74624670D01*
X166401310Y-74060493D01*
X166000817Y-73660000D01*
X166401310Y-73259507D01*
X166635000Y-72695330D01*
X166635000Y-72084670D01*
X166401310Y-71520493D01*
X166000817Y-71120000D01*
X166401310Y-70719507D01*
X166635000Y-70155330D01*
X166635000Y-69544670D01*
X166401310Y-68980493D01*
X166000817Y-68580000D01*
X166401310Y-68179507D01*
X166635000Y-67615330D01*
X166635000Y-67004670D01*
X166401310Y-66440493D01*
X166000817Y-66040000D01*
X166401310Y-65639507D01*
X166635000Y-65075330D01*
X166635000Y-64464670D01*
X166401310Y-63900493D01*
X166000817Y-63500000D01*
X166401310Y-63099507D01*
X166635000Y-62535330D01*
X166635000Y-61924670D01*
X166401310Y-61360493D01*
X165969507Y-60928690D01*
X165949885Y-60920562D01*
X166000554Y-60770159D01*
X165100000Y-59869605D01*
X164199446Y-60770159D01*
X164250115Y-60920562D01*
X164230493Y-60928690D01*
X163798690Y-61360493D01*
X163565000Y-61924670D01*
X163565000Y-62535330D01*
X163798690Y-63099507D01*
X164199183Y-63500000D01*
X163798690Y-63900493D01*
X163565000Y-64464670D01*
X163565000Y-65075330D01*
X163798690Y-65639507D01*
X164199183Y-66040000D01*
X163798690Y-66440493D01*
X163565000Y-67004670D01*
X163565000Y-67615330D01*
X163798690Y-68179507D01*
X164199183Y-68580000D01*
X163798690Y-68980493D01*
X163565000Y-69544670D01*
X163565000Y-70155330D01*
X163798690Y-70719507D01*
X164199183Y-71120000D01*
X163798690Y-71520493D01*
X163565000Y-72084670D01*
X163565000Y-72695330D01*
X163798690Y-73259507D01*
X164199183Y-73660000D01*
X163798690Y-74060493D01*
X163576495Y-74596918D01*
X152015000Y-63035424D01*
X152015000Y-59705817D01*
X152271481Y-59449336D01*
X163553542Y-59449336D01*
X163579161Y-60059460D01*
X163763357Y-60504148D01*
X164019841Y-60590554D01*
X164920395Y-59690000D01*
X165279605Y-59690000D01*
X166180159Y-60590554D01*
X166436643Y-60504148D01*
X166646458Y-59930664D01*
X166620839Y-59320540D01*
X166436643Y-58875852D01*
X166180159Y-58789446D01*
X165279605Y-59690000D01*
X164920395Y-59690000D01*
X164019841Y-58789446D01*
X163763357Y-58875852D01*
X163553542Y-59449336D01*
X152271481Y-59449336D01*
X152431310Y-59289507D01*
X152665000Y-58725330D01*
X152665000Y-58114670D01*
X152431310Y-57550493D01*
X151999507Y-57118690D01*
X151435330Y-56885000D01*
X150824670Y-56885000D01*
X150260493Y-57118690D01*
X150091275Y-57287908D01*
X150088157Y-57272235D01*
X149947809Y-57062191D01*
X149737765Y-56921843D01*
X149490000Y-56872560D01*
X147690000Y-56872560D01*
X147442235Y-56921843D01*
X147232191Y-57062191D01*
X147091843Y-57272235D01*
X147042560Y-57520000D01*
X147042560Y-59320000D01*
X147091843Y-59567765D01*
X147232191Y-59777809D01*
X147442235Y-59918157D01*
X147690000Y-59967440D01*
X149490000Y-59967440D01*
X149737765Y-59918157D01*
X149947809Y-59777809D01*
X150088157Y-59567765D01*
X150091275Y-59552092D01*
X150245000Y-59705817D01*
X150245000Y-59779956D01*
X150245001Y-59779961D01*
X150245000Y-63314841D01*
X150227663Y-63402002D01*
X150245000Y-63489163D01*
X150245000Y-63489166D01*
X150296348Y-63747311D01*
X150491951Y-64040051D01*
X150565847Y-64089427D01*
X164331419Y-77855000D01*
X152415817Y-77855000D01*
X151999507Y-77438690D01*
X151435330Y-77205000D01*
X150824670Y-77205000D01*
X150260493Y-77438690D01*
X150091275Y-77607908D01*
X150088157Y-77592235D01*
X149947809Y-77382191D01*
X149737765Y-77241843D01*
X149490000Y-77192560D01*
X147690000Y-77192560D01*
X147442235Y-77241843D01*
X147232191Y-77382191D01*
X147091843Y-77592235D01*
X147042560Y-77840000D01*
X147042560Y-79640000D01*
X147091843Y-79887765D01*
X147232191Y-80097809D01*
X147442235Y-80238157D01*
X147690000Y-80287440D01*
X149490000Y-80287440D01*
X149737765Y-80238157D01*
X149947809Y-80097809D01*
X150088157Y-79887765D01*
X150091275Y-79872092D01*
X150260493Y-80041310D01*
X150824670Y-80275000D01*
X151435330Y-80275000D01*
X151999507Y-80041310D01*
X152415817Y-79625000D01*
X176442839Y-79625000D01*
X176530000Y-79642337D01*
X176617161Y-79625000D01*
X176617165Y-79625000D01*
X176875310Y-79573652D01*
X177168049Y-79378049D01*
X177217425Y-79304153D01*
X186425000Y-70096579D01*
X186425000Y-70133421D01*
X158383422Y-98175000D01*
X152415817Y-98175000D01*
X151999507Y-97758690D01*
X151435330Y-97525000D01*
X150824670Y-97525000D01*
X150260493Y-97758690D01*
X150091275Y-97927908D01*
X150088157Y-97912235D01*
X149947809Y-97702191D01*
X149737765Y-97561843D01*
X149490000Y-97512560D01*
X147690000Y-97512560D01*
X147442235Y-97561843D01*
X147232191Y-97702191D01*
X147091843Y-97912235D01*
X147042560Y-98160000D01*
X147042560Y-99960000D01*
X147091843Y-100207765D01*
X147232191Y-100417809D01*
X147442235Y-100558157D01*
X147690000Y-100607440D01*
X149490000Y-100607440D01*
X149737765Y-100558157D01*
X149947809Y-100417809D01*
X150088157Y-100207765D01*
X150091275Y-100192092D01*
X150260493Y-100361310D01*
X150824670Y-100595000D01*
X151435330Y-100595000D01*
X151999507Y-100361310D01*
X152415817Y-99945000D01*
X158662839Y-99945000D01*
X158750000Y-99962337D01*
X158837161Y-99945000D01*
X158837165Y-99945000D01*
X159095310Y-99893652D01*
X159388049Y-99698049D01*
X159437425Y-99624153D01*
X160446147Y-98615431D01*
X181915000Y-98615431D01*
X181915000Y-99504569D01*
X182255259Y-100326026D01*
X182883974Y-100954741D01*
X183705431Y-101295000D01*
X184594569Y-101295000D01*
X185416026Y-100954741D01*
X186044741Y-100326026D01*
X186385000Y-99504569D01*
X186385000Y-98615431D01*
X186044741Y-97793974D01*
X185416026Y-97165259D01*
X184594569Y-96825000D01*
X183705431Y-96825000D01*
X182883974Y-97165259D01*
X182255259Y-97793974D01*
X181915000Y-98615431D01*
X160446147Y-98615431D01*
X186425000Y-72636579D01*
X186425000Y-72695330D01*
X186658690Y-73259507D01*
X187059183Y-73660000D01*
X186658690Y-74060493D01*
X186425000Y-74624670D01*
X186425000Y-75235330D01*
X186658690Y-75799507D01*
X187090493Y-76231310D01*
X187654670Y-76465000D01*
X188265330Y-76465000D01*
X188829507Y-76231310D01*
X189261310Y-75799507D01*
X189495000Y-75235330D01*
X189495000Y-74624670D01*
X189261310Y-74060493D01*
X188860817Y-73660000D01*
X189261310Y-73259507D01*
X189495000Y-72695330D01*
X189495000Y-72084670D01*
X189261310Y-71520493D01*
X188860817Y-71120000D01*
X189261310Y-70719507D01*
X189495000Y-70155330D01*
X189495000Y-69544670D01*
X189261310Y-68980493D01*
X188860817Y-68580000D01*
X189261310Y-68179507D01*
X189495000Y-67615330D01*
X189495000Y-67004670D01*
X189261310Y-66440493D01*
X188860817Y-66040000D01*
X189261310Y-65639507D01*
X189495000Y-65075330D01*
X189495000Y-64464670D01*
X189261310Y-63900493D01*
X188860817Y-63500000D01*
X189261310Y-63099507D01*
X189495000Y-62535330D01*
X189495000Y-61924670D01*
X189261310Y-61360493D01*
X188860817Y-60960000D01*
X189261310Y-60559507D01*
X189495000Y-59995330D01*
X189495000Y-59384670D01*
X189261310Y-58820493D01*
X188860817Y-58420000D01*
X189261310Y-58019507D01*
X189495000Y-57455330D01*
X189495000Y-56844670D01*
X189261310Y-56280493D01*
X188829507Y-55848690D01*
X188265330Y-55615000D01*
X187654670Y-55615000D01*
X187090493Y-55848690D01*
X186658690Y-56280493D01*
X186425000Y-56844670D01*
X186425000Y-57455330D01*
X186658690Y-58019507D01*
X187059183Y-58420000D01*
X186658690Y-58820493D01*
X186425000Y-59384670D01*
X186425000Y-59995330D01*
X186658690Y-60559507D01*
X187059183Y-60960000D01*
X186674183Y-61345000D01*
X175626579Y-61345000D01*
X152667329Y-38385750D01*
X174100000Y-38385750D01*
X174100000Y-38976310D01*
X174196673Y-39209699D01*
X174375302Y-39388327D01*
X174608691Y-39485000D01*
X174974250Y-39485000D01*
X175133000Y-39326250D01*
X175133000Y-38227000D01*
X174258750Y-38227000D01*
X174100000Y-38385750D01*
X152667329Y-38385750D01*
X152665000Y-38383422D01*
X152665000Y-37794670D01*
X152431310Y-37230493D01*
X152424507Y-37223690D01*
X174100000Y-37223690D01*
X174100000Y-37814250D01*
X174258750Y-37973000D01*
X175133000Y-37973000D01*
X175133000Y-37760755D01*
X175370000Y-37760755D01*
X175370000Y-38439246D01*
X175387000Y-38524710D01*
X175387000Y-39326250D01*
X175545750Y-39485000D01*
X175911309Y-39485000D01*
X176076016Y-39416776D01*
X176077392Y-39417695D01*
X176530000Y-39507725D01*
X176982609Y-39417695D01*
X177165001Y-39295825D01*
X177347392Y-39417695D01*
X177800000Y-39507725D01*
X178252609Y-39417695D01*
X178636313Y-39161313D01*
X178892695Y-38777608D01*
X178960000Y-38439245D01*
X178960000Y-37760754D01*
X178892695Y-37422391D01*
X178636313Y-37038687D01*
X178252608Y-36782305D01*
X177800000Y-36692275D01*
X177347391Y-36782305D01*
X177165000Y-36904175D01*
X176982608Y-36782305D01*
X176530000Y-36692275D01*
X176077391Y-36782305D01*
X176076016Y-36783224D01*
X175911309Y-36715000D01*
X175545750Y-36715000D01*
X175387000Y-36873750D01*
X175387000Y-37675291D01*
X175370000Y-37760755D01*
X175133000Y-37760755D01*
X175133000Y-36873750D01*
X174974250Y-36715000D01*
X174608691Y-36715000D01*
X174375302Y-36811673D01*
X174196673Y-36990301D01*
X174100000Y-37223690D01*
X152424507Y-37223690D01*
X151999507Y-36798690D01*
X151435330Y-36565000D01*
X150824670Y-36565000D01*
X150260493Y-36798690D01*
X150091275Y-36967908D01*
X150088157Y-36952235D01*
X149947809Y-36742191D01*
X149737765Y-36601843D01*
X149490000Y-36552560D01*
X147690000Y-36552560D01*
X147442235Y-36601843D01*
X147232191Y-36742191D01*
X147091843Y-36952235D01*
X147042560Y-37200000D01*
X133477000Y-37200000D01*
X133477000Y-32724615D01*
X143295000Y-32724615D01*
X143295000Y-33315385D01*
X143521078Y-33861185D01*
X143938815Y-34278922D01*
X144484615Y-34505000D01*
X145075385Y-34505000D01*
X145621185Y-34278922D01*
X146038922Y-33861185D01*
X146265000Y-33315385D01*
X146265000Y-32724615D01*
X146170249Y-32495866D01*
X147225000Y-32495866D01*
X147225000Y-33544134D01*
X147626155Y-34512608D01*
X148367392Y-35253845D01*
X149335866Y-35655000D01*
X150384134Y-35655000D01*
X151352608Y-35253845D01*
X152093845Y-34512608D01*
X152495000Y-33544134D01*
X152495000Y-32724615D01*
X153455000Y-32724615D01*
X153455000Y-33315385D01*
X153681078Y-33861185D01*
X154098815Y-34278922D01*
X154644615Y-34505000D01*
X155235385Y-34505000D01*
X155781185Y-34278922D01*
X156198922Y-33861185D01*
X156425000Y-33315385D01*
X156425000Y-32724615D01*
X156198922Y-32178815D01*
X155781185Y-31761078D01*
X155235385Y-31535000D01*
X154644615Y-31535000D01*
X154098815Y-31761078D01*
X153681078Y-32178815D01*
X153455000Y-32724615D01*
X152495000Y-32724615D01*
X152495000Y-32495866D01*
X152093845Y-31527392D01*
X151352608Y-30786155D01*
X150384134Y-30385000D01*
X149335866Y-30385000D01*
X148367392Y-30786155D01*
X147626155Y-31527392D01*
X147225000Y-32495866D01*
X146170249Y-32495866D01*
X146053910Y-32215000D01*
X146395113Y-32215000D01*
X147032799Y-31950862D01*
X147520862Y-31462799D01*
X147785000Y-30825113D01*
X147785000Y-30134887D01*
X147520862Y-29497201D01*
X147188529Y-29164868D01*
X151354737Y-29164868D01*
X151465641Y-29442099D01*
X152111593Y-29685323D01*
X152801453Y-29662836D01*
X153334359Y-29442099D01*
X153445263Y-29164868D01*
X152400000Y-28119605D01*
X151354737Y-29164868D01*
X147188529Y-29164868D01*
X147032799Y-29009138D01*
X146395113Y-28745000D01*
X145704887Y-28745000D01*
X145067201Y-29009138D01*
X144579138Y-29497201D01*
X144315000Y-30134887D01*
X144315000Y-30825113D01*
X144579138Y-31462799D01*
X144651339Y-31535000D01*
X144484615Y-31535000D01*
X143938815Y-31761078D01*
X143521078Y-32178815D01*
X143295000Y-32724615D01*
X133477000Y-32724615D01*
X133477000Y-27495431D01*
X134925000Y-27495431D01*
X134925000Y-28384569D01*
X135265259Y-29206026D01*
X135893974Y-29834741D01*
X136715431Y-30175000D01*
X137604569Y-30175000D01*
X138426026Y-29834741D01*
X139054741Y-29206026D01*
X139395000Y-28384569D01*
X139395000Y-27651593D01*
X150654677Y-27651593D01*
X150677164Y-28341453D01*
X150897901Y-28874359D01*
X151175132Y-28985263D01*
X152220395Y-27940000D01*
X152579605Y-27940000D01*
X153624868Y-28985263D01*
X153902099Y-28874359D01*
X154145323Y-28228407D01*
X154122836Y-27538547D01*
X154104977Y-27495431D01*
X181915000Y-27495431D01*
X181915000Y-28384569D01*
X182255259Y-29206026D01*
X182883974Y-29834741D01*
X183705431Y-30175000D01*
X184594569Y-30175000D01*
X185416026Y-29834741D01*
X186044741Y-29206026D01*
X186385000Y-28384569D01*
X186385000Y-27495431D01*
X186044741Y-26673974D01*
X185416026Y-26045259D01*
X184594569Y-25705000D01*
X183705431Y-25705000D01*
X182883974Y-26045259D01*
X182255259Y-26673974D01*
X181915000Y-27495431D01*
X154104977Y-27495431D01*
X153902099Y-27005641D01*
X153624868Y-26894737D01*
X152579605Y-27940000D01*
X152220395Y-27940000D01*
X151175132Y-26894737D01*
X150897901Y-27005641D01*
X150654677Y-27651593D01*
X139395000Y-27651593D01*
X139395000Y-27495431D01*
X139071790Y-26715132D01*
X151354737Y-26715132D01*
X152400000Y-27760395D01*
X153445263Y-26715132D01*
X153334359Y-26437901D01*
X152688407Y-26194677D01*
X151998547Y-26217164D01*
X151465641Y-26437901D01*
X151354737Y-26715132D01*
X139071790Y-26715132D01*
X139054741Y-26673974D01*
X138426026Y-26045259D01*
X137604569Y-25705000D01*
X136715431Y-25705000D01*
X135893974Y-26045259D01*
X135265259Y-26673974D01*
X134925000Y-27495431D01*
X133477000Y-27495431D01*
X133477000Y-22987000D01*
X190373000Y-22987000D01*
X190373000Y-105283000D01*
G04 #@! TD*
M02*
