G04 #@! TF.GenerationSoftware,KiCad,Pcbnew,5.0.0-fee4fd1~66~ubuntu16.04.1*
G04 #@! TF.CreationDate,2018-08-10T21:55:03+02:00*
G04 #@! TF.ProjectId,ESP-Cerry,4553502D43657272792E6B696361645F,rev?*
G04 #@! TF.SameCoordinates,Original*
G04 #@! TF.FileFunction,Legend,Bot*
G04 #@! TF.FilePolarity,Positive*
%FSLAX46Y46*%
G04 Gerber Fmt 4.6, Leading zero omitted, Abs format (unit mm)*
G04 Created by KiCad (PCBNEW 5.0.0-fee4fd1~66~ubuntu16.04.1) date Fri Aug 10 21:55:03 2018*
%MOMM*%
%LPD*%
G01*
G04 APERTURE LIST*
%ADD10C,0.100000*%
%ADD11C,0.150000*%
G04 APERTURE END LIST*
D10*
G04 #@! TO.C,U1*
X187347472Y-48492772D02*
X181536180Y-48492772D01*
X181536180Y-48492772D02*
X181509849Y-49776205D01*
X181509849Y-49776205D02*
X172678627Y-49769517D01*
X172678627Y-49769517D02*
X172680603Y-48567264D01*
X172680603Y-48567264D02*
X163599807Y-48593342D01*
X163599807Y-48593342D02*
X163613805Y-79763493D01*
X163613805Y-79763493D02*
X163846616Y-80366286D01*
X163846616Y-80366286D02*
X164130099Y-80911167D01*
X164130099Y-80911167D02*
X164464747Y-81397577D01*
X164464747Y-81397577D02*
X164851047Y-81824952D01*
X164851047Y-81824952D02*
X165289488Y-82192741D01*
X165289488Y-82192741D02*
X165780560Y-82500377D01*
X165780560Y-82500377D02*
X166324750Y-82747310D01*
X166324750Y-82747310D02*
X166922547Y-82932976D01*
X166922547Y-82932976D02*
X185960460Y-82961734D01*
X185960460Y-82961734D02*
X186579824Y-82727741D01*
X186579824Y-82727741D02*
X187168018Y-82443258D01*
X187168018Y-82443258D02*
X187711445Y-82093743D01*
X187711445Y-82093743D02*
X188196503Y-81664658D01*
X188196503Y-81664658D02*
X188609595Y-81141460D01*
X188609595Y-81141460D02*
X188937122Y-80509613D01*
X188937122Y-80509613D02*
X189165482Y-79754575D01*
X189165482Y-79754575D02*
X189281078Y-78861807D01*
X189281078Y-78861807D02*
X189306026Y-56306715D01*
X189306026Y-56306715D02*
X187362480Y-55345819D01*
X187362480Y-55345819D02*
X187332686Y-48537476D01*
X173350350Y-54718549D02*
X180489931Y-54718549D01*
X180489931Y-54718549D02*
X180489931Y-48904812D01*
X180489931Y-48904812D02*
X173350350Y-48904812D01*
X173350350Y-48904812D02*
X173350350Y-54718549D01*
X187273600Y-55367651D02*
X185721378Y-55367651D01*
X185721378Y-55367651D02*
X185192211Y-54838485D01*
X185192211Y-54838485D02*
X183939850Y-54838485D01*
X183939850Y-54838485D02*
X183939850Y-49776124D01*
X183939850Y-49776124D02*
X185227489Y-49776124D01*
X185227489Y-49776124D02*
X185756656Y-49282235D01*
X185756656Y-49282235D02*
X187326517Y-49282235D01*
X187326517Y-49282235D02*
X187273600Y-55367651D01*
X187308878Y-53286262D02*
X187961517Y-53286262D01*
X187961517Y-53286262D02*
X187961517Y-51293068D01*
X187961517Y-51293068D02*
X187344156Y-51293068D01*
D11*
X178561904Y-45412380D02*
X178561904Y-46221904D01*
X178514285Y-46317142D01*
X178466666Y-46364761D01*
X178371428Y-46412380D01*
X178180952Y-46412380D01*
X178085714Y-46364761D01*
X178038095Y-46317142D01*
X177990476Y-46221904D01*
X177990476Y-45412380D01*
X176990476Y-46412380D02*
X177561904Y-46412380D01*
X177276190Y-46412380D02*
X177276190Y-45412380D01*
X177371428Y-45555238D01*
X177466666Y-45650476D01*
X177561904Y-45698095D01*
X183387142Y-78367142D02*
X182672857Y-81367142D01*
X182101428Y-79224285D01*
X181530000Y-81367142D01*
X180815714Y-78367142D01*
X178530000Y-81224285D02*
X178815714Y-81367142D01*
X179387142Y-81367142D01*
X179672857Y-81224285D01*
X179815714Y-80938571D01*
X179815714Y-79795714D01*
X179672857Y-79510000D01*
X179387142Y-79367142D01*
X178815714Y-79367142D01*
X178530000Y-79510000D01*
X178387142Y-79795714D01*
X178387142Y-80081428D01*
X179815714Y-80367142D01*
X177101428Y-81367142D02*
X177101428Y-78367142D01*
X176101428Y-80510000D01*
X175101428Y-78367142D01*
X175101428Y-81367142D01*
X173244285Y-81367142D02*
X173530000Y-81224285D01*
X173672857Y-81081428D01*
X173815714Y-80795714D01*
X173815714Y-79938571D01*
X173672857Y-79652857D01*
X173530000Y-79510000D01*
X173244285Y-79367142D01*
X172815714Y-79367142D01*
X172530000Y-79510000D01*
X172387142Y-79652857D01*
X172244285Y-79938571D01*
X172244285Y-80795714D01*
X172387142Y-81081428D01*
X172530000Y-81224285D01*
X172815714Y-81367142D01*
X173244285Y-81367142D01*
X171101428Y-81224285D02*
X170815714Y-81367142D01*
X170244285Y-81367142D01*
X169958571Y-81224285D01*
X169815714Y-80938571D01*
X169815714Y-80795714D01*
X169958571Y-80510000D01*
X170244285Y-80367142D01*
X170672857Y-80367142D01*
X170958571Y-80224285D01*
X171101428Y-79938571D01*
X171101428Y-79795714D01*
X170958571Y-79510000D01*
X170672857Y-79367142D01*
X170244285Y-79367142D01*
X169958571Y-79510000D01*
G04 #@! TD*
M02*
