G04 #@! TF.GenerationSoftware,KiCad,Pcbnew,5.0.0-fee4fd1~66~ubuntu16.04.1*
G04 #@! TF.CreationDate,2018-08-10T21:55:03+02:00*
G04 #@! TF.ProjectId,ESP-Cerry,4553502D43657272792E6B696361645F,rev?*
G04 #@! TF.SameCoordinates,Original*
G04 #@! TF.FileFunction,Soldermask,Bot*
G04 #@! TF.FilePolarity,Negative*
%FSLAX46Y46*%
G04 Gerber Fmt 4.6, Leading zero omitted, Abs format (unit mm)*
G04 Created by KiCad (PCBNEW 5.0.0-fee4fd1~66~ubuntu16.04.1) date Fri Aug 10 21:55:03 2018*
%MOMM*%
%LPD*%
G01*
G04 APERTURE LIST*
%ADD10C,2.200000*%
%ADD11R,2.200000X2.200000*%
%ADD12C,2.600000*%
%ADD13C,4.400000*%
%ADD14C,2.100000*%
%ADD15C,3.600000*%
%ADD16O,1.450000X1.900000*%
%ADD17R,1.450000X1.900000*%
G04 APERTURE END LIST*
D10*
G04 #@! TO.C,U1*
X165100000Y-74930000D03*
X165100000Y-72390000D03*
X165100000Y-69850000D03*
X165100000Y-67310000D03*
X165100000Y-64770000D03*
X165100000Y-62230000D03*
X165100000Y-59690000D03*
X165100000Y-57150000D03*
X187960000Y-57150000D03*
X187960000Y-59690000D03*
X187960000Y-62230000D03*
X187960000Y-64770000D03*
X187960000Y-67310000D03*
X187960000Y-69850000D03*
X187960000Y-72390000D03*
X187960000Y-74930000D03*
G04 #@! TD*
G04 #@! TO.C,D1*
X151130000Y-38100000D03*
D11*
X148590000Y-38100000D03*
G04 #@! TD*
G04 #@! TO.C,D2*
X148590000Y-58420000D03*
D10*
X151130000Y-58420000D03*
G04 #@! TD*
G04 #@! TO.C,D3*
X151130000Y-78740000D03*
D11*
X148590000Y-78740000D03*
G04 #@! TD*
G04 #@! TO.C,D4*
X148590000Y-99060000D03*
D10*
X151130000Y-99060000D03*
G04 #@! TD*
D12*
G04 #@! TO.C,SW1*
X152400000Y-27940000D03*
X146050000Y-30480000D03*
D13*
X149860000Y-33020000D03*
D14*
X144780000Y-33020000D03*
X154940000Y-33020000D03*
G04 #@! TD*
G04 #@! TO.C,SW2*
X154940000Y-53340000D03*
X144780000Y-53340000D03*
D13*
X149860000Y-53340000D03*
D12*
X146050000Y-50800000D03*
X152400000Y-48260000D03*
G04 #@! TD*
G04 #@! TO.C,SW3*
X152400000Y-68580000D03*
X146050000Y-71120000D03*
D13*
X149860000Y-73660000D03*
D14*
X144780000Y-73660000D03*
X154940000Y-73660000D03*
G04 #@! TD*
G04 #@! TO.C,SW4*
X154940000Y-93980000D03*
X144780000Y-93980000D03*
D13*
X149860000Y-93980000D03*
D12*
X146050000Y-91440000D03*
X152400000Y-88900000D03*
G04 #@! TD*
D15*
G04 #@! TO.C,MH1*
X184150000Y-27940000D03*
G04 #@! TD*
G04 #@! TO.C,MH2*
X184150000Y-99060000D03*
G04 #@! TD*
G04 #@! TO.C,MH3*
X137160000Y-27940000D03*
G04 #@! TD*
G04 #@! TO.C,MH4*
X137160000Y-86360000D03*
G04 #@! TD*
G04 #@! TO.C,MH5*
X137160000Y-48260000D03*
G04 #@! TD*
G04 #@! TO.C,MH6*
X137160000Y-66040000D03*
G04 #@! TD*
D16*
G04 #@! TO.C,U2*
X176530000Y-38100000D03*
X177800000Y-38100000D03*
D17*
X175260000Y-38100000D03*
G04 #@! TD*
M02*
